<svg width="283" height="230" viewBox="0 0 283 230" fill="none" xmlns="http://www.w3.org/2000/svg">
<g clip-path="url(#clip0_2404_17246)">
<path d="M39.5915 180.07L34.5258 179.136L28.4979 178.627L18.4514 179.136L17.9137 179.051L17.6307 178.853L17.4043 178.57L17.0647 178.316L17.4609 178.174L17.7156 178.316L18.0835 178.005L18.225 178.118L18.3665 178.825L19.1872 178.061L19.4136 178.287L19.8947 178.174L20.3475 178.146L20.7437 178.089L21.1116 177.891L21.4512 177.524L21.4795 177.269L21.4512 176.788L21.6776 176.703H22.6398L23.1492 176.618L24.168 176.279L24.5076 176.364L25.017 176.166L25.4981 175.883L25.8377 175.515L25.9509 175.006L26.2339 174.893L28.2149 174.581L27.8753 174.383L27.564 174.44L26.2339 174.1L24.9038 174.61L23.6303 175.345L22.4983 175.713L21.8191 175.77L20.9984 176.194L20.4607 176.364H20.1494L19.7815 176.222H19.4985L19.2721 176.024L19.1589 175.43L19.3287 174.921V174.581L18.9325 174.836L18.6495 175.062L18.1401 175.656L17.4892 175.77L17.4043 175.968L17.5458 176.477L17.4609 176.958L17.1496 177.467L16.9798 177.92L16.7251 178.203L17.1779 178.91L17.0647 179.447L15.678 179.589L13.0461 179.476L9.96137 179.815L6.31067 179.645L1.04688 180.126V178.683L1.21668 177.637L2.15057 177.722L2.94297 177.637L3.56558 177.835L4.15987 177.806L4.78247 177.382L5.23527 176.873L5.20697 176.533L5.46167 176.392L10.6123 176.618L11.999 176.449L12.3386 176.052L12.5933 174.893L12.9329 174.412L13.3008 174.016L13.6404 172.799L13.7819 172.46L14.5177 172.148L15.0837 172.318L16.1591 172.884L16.6968 173.591L17.5458 173.62L17.9986 173.535L18.2816 173.139L18.3382 172.799L18.5646 172.573L32.3184 172.516L33.7051 172.884L33.4504 173.506L32.8844 173.959L32.6863 174.553L32.9127 175.119L32.941 175.43L33.6202 175.968L34.3277 175.6L35.0352 175.119L35.7993 174.949L36.4785 175.204L36.7332 175.685L36.5068 176.194L35.1484 176.93L35.205 177.524L35.7427 177.863L36.3936 178.033L36.7332 178.344L37.1294 178.599L37.6671 178.457L39.0255 178.514L39.6764 178.74L39.7047 179.362L39.5915 180.07Z" fill="#E30325" stroke="white" stroke-width="0.8" stroke-linecap="round" stroke-linejoin="round"/>
<path d="M33.3659 162.5L35.0356 161.68L35.5167 162.698L35.7148 163.745L36.677 163.632L37.5543 163.066L38.658 163.038L39.4221 163.688L39.7051 164.282L39.9315 164.877L39.9881 165.273L40.1296 165.612L40.7805 165.64L41.6295 165.188L42.1106 165.329L42.62 165.357L43.0162 165.188L43.4407 165.075L44.4029 164.99L44.7708 165.442L44.2331 168.554L43.7803 169.148L41.6578 170.704L40.4975 171.949L39.9032 173.505V174.241L40.2428 174.835L40.5541 175.061L41.3182 175.316L41.7144 175.372L42.9313 175.429L43.9501 174.778L44.318 174.241L44.9123 173.958L45.3368 174.58V176.249L45.5632 177.353L45.5066 177.692L45.2236 177.975L44.8557 178.088L43.6671 178.965L42.903 179.078L42.5068 179.22L42.9313 179.701H43.6388L44.9406 180.266L44.9689 180.917L44.601 181.341L43.186 181.228L43.1577 181.257L41.0918 180.351L39.5919 180.068L39.7051 179.361L39.6768 178.739L39.0259 178.512L37.6675 178.456L37.1298 178.597L36.7336 178.343L36.394 178.032L35.7431 177.862L35.2054 177.522L35.1488 176.928L36.5072 176.193L36.7336 175.683L36.4789 175.202L35.7997 174.948L35.0356 175.118L34.3281 175.599L33.6206 175.966L32.9414 175.429L32.9131 175.118L32.6867 174.552L32.8848 173.958L33.4508 173.505L33.7055 172.883L32.3188 172.515L18.565 172.572L18.3386 172.798L18.282 173.137L17.999 173.533L17.5462 173.618L16.6972 173.59L16.1595 172.883L15.0841 172.317L14.5181 172.147L13.7823 172.458L13.6408 172.798L13.3012 174.014L12.9333 174.41L12.5937 174.891L12.339 176.051L11.9994 176.447L10.6127 176.617L5.4621 176.391L5.2074 176.532L5.2357 176.872L4.7829 177.381L4.1603 177.805L3.566 177.833L2.9434 177.635L2.151 177.72L1.2171 177.635L1.302 177.155L1.8397 175.627L1.868 175.146L1.6699 174.127V173.647L1.9529 173.137L2.3774 172.77L2.6604 172.572L2.8019 172.289L2.717 171.214L2.6887 170.959L2.5472 170.846L2.0095 170.761L1.6133 170.365L1.5001 169.912L1.5567 169.403L1.8114 168.413L1.6982 167.394L1.3869 166.489L1.302 165.64L1.9246 164.792L2.7453 164.424L2.8302 164.169L2.6887 163.943L2.0661 163.434L1.868 163.179L1.8114 162.726L2.1227 162.104L2.3208 161.849L2.4057 161.312L1.9246 155.456L1.9812 155.201L2.151 155.088H2.4057L2.9151 155.201L3.0566 154.805L3.1132 153.815L2.6038 152.938L1.8963 152.118L1.4435 151.241L1.302 150.307L1.585 146.318L1.5284 145.979L1.302 145.639L0.764303 144.988L0.481303 144.31L0.283203 143.942L0.453003 143.857L2.4623 142.414L4.7546 142.471L5.3489 143.602L5.4621 146.233L5.8866 147.535L6.5375 147.648L6.7639 146.431L7.1035 145.385L8.0091 145.356L8.1506 147.45L7.2733 149.854L7.3016 150.364L7.7544 151.58L8.7449 152.401L9.509 153.419L10.5844 155.343L12.2258 156.842L13.5276 157.295L14.8294 157.238L15.7916 156.418L16.7255 154.07L17.716 153.419L18.565 154.07L18.9895 155.23L19.6687 155.597L20.3479 155.23L21.0554 154.918L23.4043 154.975L24.225 156.135L24.1967 157.464L24.2533 157.861L24.9608 158.37L25.64 158.738L25.7815 159.162V159.615L25.8381 159.982L26.0079 160.322L26.2909 161.736L25.4136 162.953L24.7627 164.028L26.1777 164.084L29.0926 163.745L30.5359 163.349L31.1868 162.925L31.9509 162.67L32.6584 162.613L33.3659 162.5Z" fill="#E30325" stroke="white" stroke-width="0.8" stroke-linecap="round" stroke-linejoin="round"/>
<path d="M79.2959 151.552L78.8714 152.259L78.3337 152.91L78.0507 153.051L77.3998 153.192L77.0885 153.475L76.8621 154.296L77.5696 154.748L77.6828 155.173L77.4281 155.682L77.513 156.418L77.6545 156.757L77.7394 157.295L77.513 158.058L77.2017 158.398L76.8055 158.653L76.2395 159.162L75.7301 159.756L75.7018 160.067L75.7584 160.293L74.683 162.783L74.5415 163.349L74.2302 163.773L73.6076 164.424L73.2963 165.272L73.2397 166.121L73.5793 166.828L73.6642 167.111L73.3529 167.536L73.3812 167.903L72.8435 168.045L72.6171 168.639L72.3341 170.138L72.2209 170.478L71.8813 171.044L71.6266 171.213L71.2304 171.355L70.4946 171.185L70.1833 170.902L69.5041 170.846L68.3438 171.779L67.8344 171.864L67.2118 170.308L67.4382 169.629L67.8344 169.035L66.759 168.186H60.1651L59.7689 168.356L59.4859 168.667V169.29L59.118 169.799L58.8067 170.421L57.9577 171.242L57.2502 172.147L56.9672 172.656L56.8823 173.42L56.7974 173.76V174.495L56.9106 174.693L57.1087 174.778L57.5049 175.429L57.9294 176.673L57.3917 177.918L56.9955 178.512L56.8257 179.22L56.4861 179.814L55.8918 180.125L55.3824 180.295L55.0428 180.804L54.9296 181.483L54.59 182.133L54.7315 182.36L55.2126 182.643L55.7786 183.124L56.2597 183.718L56.3163 184.029L56.8257 184.114L57.3634 184.425L57.8162 185.104L57.7879 185.868L55.156 192.29L52.4109 188.697L51.9298 188.244L50.9959 187.848L50.5714 187.367L49.9771 186.434L49.1564 185.557L48.4206 184.991L45.8736 183.378L44.4303 182.02L43.5247 181.426L43.1568 181.256L43.1851 181.228L44.6001 181.341L44.968 180.917L44.9397 180.266L43.6379 179.7H42.9304L42.5059 179.22L42.9021 179.078L43.6662 178.965L44.8548 178.088L45.2227 177.975L45.5057 177.692L45.5623 177.352L45.3359 176.249V174.58L44.9114 173.958L44.3171 174.24L43.9492 174.778L42.9304 175.429L41.7135 175.372L41.3173 175.316L40.5532 175.061L40.2419 174.835L39.9023 174.24V173.505L40.4966 171.949L41.6569 170.704L43.7794 169.148L44.2322 168.554L44.7699 165.442L45.6755 164.961L46.0434 164.452L46.2132 163.83L46.8641 162.755L47.8546 161.934L48.7885 161.68L49.6658 162.047L50.8544 162.811L51.1374 162.953L51.76 163.009L52.0147 162.839L52.0713 162.302L52.0147 161.764L52.0996 161.142L52.0713 159.36L52.2694 158.228L52.6939 157.097L53.7127 156.587L54.873 156.248L54.9013 155.314L56.5427 154.777L57.42 154.748L59.9953 154.918L61.665 154.833L62.8819 155.201L63.4479 156.333L63.9573 158.002L65.2591 158.511L67.7495 156.418L69.0513 153.391L69.4475 151.127L69.7588 150.448L70.8059 149.345L71.4002 148.977L71.7115 148.581L71.9379 148.157L72.5322 147.817L73.1831 148.1L73.7774 147.874L74.2019 147.195L76.098 146.855L76.8055 147.167L76.6357 148.1L77.8243 149.939L79.2959 151.552Z" fill="#E30325" stroke="white" stroke-width="0.8" stroke-linecap="round" stroke-linejoin="round"/>
<path d="M74.2025 147.194L73.778 147.873L73.1837 148.1L72.5328 147.817L71.9385 148.156L71.7121 148.58L71.4008 148.977L70.8065 149.344L69.7594 150.448L69.4481 151.127L69.0519 153.39L67.7501 156.417L65.2597 158.51L63.9579 158.001L63.4485 156.332L62.8825 155.2L61.6656 154.833L59.9959 154.917L57.4206 154.748L56.5433 154.776L54.9019 155.314L53.0341 150.25L52.8926 149.033L53.1473 147.986L53.3454 145.129L54.4491 143.686L55.3264 143.262L56.0622 142.611L56.5999 140.659L56.8829 140.829L56.9961 141.253L57.4772 141.451L58.9488 140.999L60.5053 141.989L61.4392 142.045L62.0335 142.187L63.024 142.017H63.4202L63.7032 141.451L63.8447 140.687L64.3541 140.093L65.1748 139.839L67.7218 139.754L67.2407 140.405L67.269 141.423L67.7218 141.593L68.3727 141.197L69.2217 140.999L70.0707 140.914L70.5235 140.97L70.8631 141.225L70.8348 141.763L70.2971 142.074L69.6179 142.922L69.4481 143.941L69.7877 144.959L70.5801 145.667L70.8914 145.638L71.2876 145.978L73.1271 146.883L74.2025 147.194Z" fill="#E30325" stroke="white" stroke-width="0.8" stroke-linecap="round" stroke-linejoin="round"/>
<path d="M56.6008 140.661L56.0631 142.613L55.3273 143.264L54.45 143.688L53.3463 145.131L53.1482 147.988L52.8935 149.035L53.035 150.251L54.9028 155.315L54.8745 156.249L53.7142 156.588L52.6954 157.098L52.2709 158.229L52.0728 159.361L52.1011 161.143L52.0162 161.765L52.0728 162.303L52.0162 162.84L51.7615 163.01L51.1389 162.954L50.8559 162.812L49.6673 162.048L48.79 161.681L47.8561 161.935L46.8656 162.756L46.2147 163.831L46.0449 164.453L45.677 164.962L44.7714 165.443L44.4035 164.99L43.4413 165.075L43.0168 165.189L42.6206 165.358L42.1112 165.33L41.6301 165.189L40.7811 165.641L40.1302 165.613L39.9887 165.273L39.9321 164.877L39.7057 164.283L39.4227 163.689L38.6586 163.038L37.5549 163.067L36.6776 163.633L35.7154 163.746L35.5173 162.699L35.0362 161.681L33.3665 162.501L34.9796 153.901L34.8381 153.222L34.3853 152.684L34.0174 151.92L33.4797 151.27L32.8288 150.845L32.3477 150.308L32.376 149.629L32.7722 149.035L32.9986 148.356L33.1118 147.649L33.1967 146.093L33.5929 145.018L35.1777 145.442L36.3946 144.565L36.3663 144.056L36.8191 143.631L37.2436 143.009L37.753 142.5L38.4888 142.783L39.1397 143.348L40.017 144.763L40.9509 144.961L41.4603 144.452L42.1395 143.971L42.4225 143.603L42.6489 143.518L43.0451 143.179L43.4979 142.924L43.9224 142.754L44.4318 142.669L44.7431 142.217L44.7997 141.396L44.6299 140.604L46.1581 140.519L47.6863 140.661L49.0164 140.378L49.6107 140.123L50.2616 139.982L51.7898 139.84L52.7237 139.473L53.7142 139.501L54.1953 140.321L54.9028 140.774L56.2612 140.604L56.6008 140.661Z" fill="#E30325" stroke="white" stroke-width="0.8" stroke-linecap="round" stroke-linejoin="round"/>
<path d="M44.6293 140.603L44.7991 141.395L44.7425 142.215L44.4312 142.668L43.9218 142.753L43.4973 142.923L43.0445 143.177L42.6483 143.517L42.4219 143.602L42.1389 143.969L41.4597 144.45L40.9503 144.96L40.0164 144.762L39.1391 143.347L38.4882 142.781L37.7524 142.498L37.243 143.008L36.8185 143.63L36.3657 144.054L36.394 144.564L35.1771 145.441L33.5923 145.016L33.1961 146.091L33.1112 147.647L32.998 148.354L32.7716 149.033L32.3754 149.628L32.3471 150.306L32.8282 150.844L33.4791 151.268L34.0168 151.919L34.3847 152.683L34.8375 153.22L34.979 153.899L33.3659 162.5L32.6584 162.613L31.9509 162.669L31.1868 162.924L30.5359 163.348L29.0926 163.744L26.1777 164.084L24.7627 164.027L25.4136 162.952L26.2909 161.736L26.0079 160.321L25.8381 159.982L25.7815 159.614V159.161L25.64 158.737L24.9608 158.369L24.2533 157.86L24.1967 157.464L24.225 156.134L23.4043 154.974L21.0554 154.918L20.3479 155.229L19.6687 155.597L18.9895 155.229L18.565 154.069L17.716 153.418L16.7255 154.069L15.7916 156.417L14.8294 157.238L13.5276 157.294L12.2258 156.842L10.5844 155.342L9.509 153.418L8.7449 152.4L7.7544 151.58L7.3016 150.363L7.2733 149.854L8.1506 147.449L8.0091 145.356L7.1035 145.384L6.7639 146.431L6.5375 147.647L5.8866 147.534L5.4621 146.233L5.3489 143.602L4.7546 142.47L2.4623 142.413L0.453003 143.856L0.283203 143.941L0.311503 143.658L0.651103 142.979L0.736003 141.48L1.019 139.981L1.0756 138.566L1.1605 138.113L1.3303 137.717L1.585 137.321L1.7548 136.869L1.7831 136.359L1.6133 135.85L1.1605 134.86L0.962403 134.351L0.877503 133.757L0.905803 133.304L1.1039 132.342L1.0473 131.465L1.1605 131.154L1.6416 130.616L1.8114 130.334L2.0095 129.541L1.9529 128.834L3.3396 127.646L4.2452 127.674L6.113 127.25L6.679 126.882L7.1035 126.345L8.4053 125.298L8.943 125.072L9.1128 124.845L9.4807 124.534L9.9618 124.251L10.924 123.402L11.4334 123.091L11.9711 122.921L12.339 122.893L12.7352 122.978L12.905 123.233L13.188 123.374L13.4427 123.657L13.754 123.6L16.5274 122.327L17.5745 121.535L18.5367 121.054L19.5555 120.29L24.3948 117.858L24.9325 117.461L25.3853 116.952L25.6117 115.396L26.206 114.236L27.2531 113.473L28.3851 113.359L29.4605 113.84L30.1397 114.717L30.6774 115.764L31.583 116.556L32.6301 117.094L35.4035 118.084L37.1298 118.48H37.7807L38.941 117.773L39.3372 118.678L38.5448 119.838L37.7524 120.29L37.1864 120.885L36.7902 121.507L36.2808 122.016L35.9695 123.459L36.2808 124.902L38.375 129.541L39.1957 130.814L40.0164 134.011L40.8654 135.256L41.4031 135.737L42.0257 136.133L42.8747 137.519L43.5539 139.782L43.8369 140.263L44.2331 140.348L44.6293 140.603Z" fill="#E30325" stroke="white" stroke-width="0.8" stroke-linecap="round" stroke-linejoin="round"/>
<path d="M123.275 203.888L122.624 204.624L123.02 205.642L123.275 206.067L123.756 206.435L125.143 206.208L125.737 206.35L126.784 207.029L127.18 207.481L127.01 210.367L127.322 211.668L127.973 212.856L128.822 214.045L131.567 216.93L132.472 217.609L132.755 217.666L132.897 217.779L133.236 218.797L133.519 219.193L133.265 219.872L133.236 220.099L133.321 220.41L133.831 220.636L134.029 220.806L134.114 221.372L133.746 221.711L133.265 221.966L133.067 222.362L132.727 223.069L132.274 223.239H131.255L129.925 223.069H127.888L126.926 222.928L126.473 222.956L125.68 223.352L125.228 223.409H124.18L120.162 223.89L119.935 223.748L119.652 223.72L119.369 223.805L119.2 224.059H119.652L119.992 224.229L119.483 224.342L118.719 224.399L118.039 224.286L117.728 223.975L117.388 223.89L115.323 223.748L115.492 223.494L115.323 223.324L114.87 223.352L114.813 223.069L114.898 222.928L115.209 222.701L115.323 222.447L114.813 221.796L114.983 221.457L114.643 221.061L114.728 220.467L115.153 219.363H114.983L114.728 219.533L114.757 218.967L114.558 218.09L114.134 217.439L113.851 216.845L113.681 215.855L113.172 214.922L113.228 214.526L113.37 214.101L113.059 212.941L113.596 212.093L114.36 211.329L114.502 210.282L114.36 209.179L114.445 208.16L114.785 206.661L114.728 206.208L114.502 205.784L114.53 205.303L115.577 205.02L116.794 205.19L117.473 204.737L117.615 204.284L117.36 203.832L116.794 203.662L116.822 203.351L117.388 202.05L117.247 200.437L117.87 199.984L118.775 200.126L119.935 200.946L120.728 202.191L122.058 202.927L123.275 203.888Z" fill="#2249D1" stroke="white" stroke-width="0.8" stroke-linecap="round" stroke-linejoin="round"/>
<path d="M112.803 224.909L113.228 225.022L113.652 224.966L114.501 224.739L115.69 224.626L115.916 224.711L115.803 225.022L115.577 225.305L115.18 225.39L114.275 225.362L113.907 225.418L112.747 225.843L112.322 225.871L110.596 225.758L110.228 225.588L110.086 225.277L110.313 224.853L110.568 224.739L111.7 224.372L111.983 224.485L112.803 224.909ZM108.247 224.4L108.615 224.541L109.69 224.428L110.002 224.541L109.719 224.796L109.577 225.079L109.52 225.758L109.407 226.126L109.181 226.352L108.53 226.691L106.436 227.116L105.643 227.059L105.417 226.776L105.643 226.324L106.407 225.531L106.917 224.711L107.37 224.174L107.568 223.551L107.907 223.749L108.247 224.4ZM108.077 207.907L108.558 208.784L108.445 209.944L106.011 213.678L106.323 215.517L107.285 215.8L109.209 215.404L110.143 215.375L111.02 215.743L112.266 215.771L113.85 216.846L114.133 217.44L114.558 218.091L114.756 218.968L114.728 219.534L114.416 219.845L114.36 220.1L114.473 220.694V220.92L114.275 221.203V221.373L114.586 221.741L114.671 221.939L114.19 222.448L113.709 222.759L113.454 222.787L113.228 222.589H113.058L112.86 223.07L112.35 223.014L111.53 222.589L110.935 222.561L110.341 222.448L109.803 222.193L109.52 221.797L109.209 221.939H108.785L108.587 222.363L108.388 222.448V222.589L108.7 222.759L108.558 222.929L108.841 223.014L109.266 223.353L109.888 223.495L110.002 223.636L109.832 224.06L108.785 224.23L108.134 223.325L106.662 221.712L106.436 221.203V220.581L106.379 220.354H106.238L105.898 220.496L105.389 220.524L104.681 219.93L104.511 219.675L104.115 218.6L103.832 218.459L103.521 218.883L103.577 219.11L103.86 219.194L104.03 219.364L104.257 220.156L104.483 220.524L104.908 220.666L105.643 221.033L106.153 221.825L106.238 222.618L105.643 222.929L105.955 223.127L106.294 223.466L106.521 223.891L106.351 224.315L105.728 225.022L105.304 225.22L104.823 225.022V225.503L104.398 225.305L104.059 225.022L103.917 224.683L104.03 224.23L103.719 224.513L103.634 224.909L103.776 225.305L104.03 225.673L103.379 225.843H103.21L102.927 225.277L102.785 224.683L102.728 223.495L102.332 222.844L102.219 222.448L102.474 222.278L102.7 221.627L102.785 221.147L102.728 220.807L103.21 220.977L103.04 220.694L102.587 220.185L102.361 219.393L102.247 219.194L101.823 219.789H101.653L101.568 219.421L101.285 218.883L101.172 219.251L101.229 219.817L101.115 219.987L101.398 220.383L101.908 221.797L101.512 221.769L101.285 221.458L100.974 221.627L100.747 221.175L100.521 220.779L99.8419 219.987L99.8702 220.383L99.9834 220.694L100.323 221.288L100.606 221.684L100.549 222.08L100.323 222.335L100.493 222.589L100.719 222.222L101.172 222.108L101.568 222.222L101.766 222.533L101.54 224.145L101.596 224.711L102.417 226.352L102.728 226.748L102.559 227.201L102.332 227.285L102.021 227.257L101.313 226.946L101.455 227.285L100.946 227.144L100.408 226.889L99.8985 226.776L99.3325 226.974L99.0778 226.691L98.8797 226.324L98.8514 225.899L99.0212 225.503L98.625 225.277L98.2571 224.683L98.0024 223.919L97.8892 223.325L97.9458 222.901L98.059 222.674L98.3986 222.278L98.5967 221.656L98.5401 221.288L98.1439 221.147L97.5496 220.807L97.1251 220.015L96.7572 218.544L96.7006 217.978L96.7572 217.667L97.1817 217.044L97.1251 216.846L96.8987 216.818L96.6157 217.101L96.3893 216.818L96.2761 216.422L95.8799 216.563L95.4837 216.422L95.5686 216.846L95.6252 217.271L95.7384 217.61L96.0497 217.752L96.2478 217.921L96.4176 218.346L96.6157 219.194L96.7006 220.071L96.8138 220.496L97.3232 220.807L97.6345 221.175L98.059 221.939L97.5213 222.391L97.4081 222.589L97.3798 222.929L97.8326 225.249L98.0873 225.956L98.3986 226.324L98.342 226.861L98.8231 227.285L99.1344 227.625L98.5401 227.936L97.8043 228.078L96.8704 228.134L95.9931 228.049L95.4837 227.766L95.3988 227.427L95.4837 226.041L95.6252 225.758L95.3139 225.362V224.541L95.3988 224.145L95.9365 222.731L95.9931 222.476L95.9648 221.797L95.6535 222.165L95.3705 221.797L94.6064 221.458L93.9555 220.948L93.5876 220.156L93.3895 219.308L91.9462 218.402L89.9935 219.138L89.2577 219.194L89.003 218.487L89.1162 218.035L88.9181 217.752L88.5785 217.723L88.2389 217.554L87.7012 216.846L87.7295 215.885L87.9842 215.064L88.4653 214.357L88.5219 214.017L88.7483 213.508L89.1728 213.055L88.8615 212.603L88.6917 212.065V211.584L88.8049 210.99L88.9464 210.509L89.0879 210.283L89.5124 210.085L89.7105 209.576L89.8237 208.501L90.1633 207.737L90.6727 207.256L91.2387 206.832L92.0311 205.841L92.3424 205.191L92.7952 205.106L93.1631 204.738L93.2197 204.455L93.1065 204.229L92.4273 203.437L90.2482 203.239L89.8237 202.192L90.3048 201.683L90.8708 201.428L91.3236 200.947L91.6066 200.381L91.8047 199.222L92.2858 198.147L92.8801 195.402L93.5876 196.053L94.38 196.11L94.097 196.93L93.3612 200.636L93.531 201.174L94.3517 201.23L95.229 201.032L96.1912 202.051L95.9931 203.72L95.6535 204.484L95.6818 205.304L95.9082 205.559L96.4742 205.983L96.644 206.294L99.1061 207.907L102.445 208.133L105.389 207.85L106.634 208.218L107.398 208.105L108.077 207.907Z" fill="#2249D1" stroke="white" stroke-width="0.8" stroke-linecap="round" stroke-linejoin="round"/>
<path d="M95.6532 222.164L95.5117 222.334L95.1438 223.324L95.0023 224.399L95.1438 225.192L95.0589 225.39L95.0023 226.153L94.7759 225.616L94.691 225.305L94.6344 223.862L94.5212 223.551L94.3231 223.862L94.0118 224.06L94.1533 224.399L94.1816 225.503L94.2665 225.871L94.5495 226.38L94.7476 226.861L94.974 227.653L95.0023 227.936L94.8042 228.19L94.5778 228.275H93.842L93.1911 228.332L93.0496 228.19L92.7949 227.426L92.7383 226.691L92.7666 225.616L92.6534 224.767L92.3138 224.145L91.578 224.23L92.2572 224.739L92.4836 225.559L92.3987 226.521L92.0874 227.455L92.0308 228.247L90.8705 228.502L89.5121 228.388L88.8612 227.936L88.2386 228.105L88.4084 228.53L88.0122 228.671L87.4179 228.728L86.9934 228.841L86.5406 229.039L85.4652 229.067L84.9841 229.237L84.4464 228.586L84.9275 227.568L86.4557 225.842L85.8048 225.757L85.635 225.842L84.8143 226.804L84.7011 225.531L84.3332 224.371H84.1917L84.1634 224.852L84.22 225.446L84.3049 226.04L84.0785 225.984L83.7955 225.757L83.371 225.672L83.6257 226.21L83.8804 226.578L84.0502 226.974L84.0219 227.596L83.8521 228.077L83.6823 228.417L83.2012 228.728L83.2295 229.067L83.5408 228.954L83.8804 229.067L83.7389 229.294L83.0597 229.52L82.2107 229.548L81.6164 229.407L81.2768 229.718L80.9089 229.577L80.6825 229.35L80.6259 229.011V228.586L80.7391 228.19L81.0504 227.624L81.107 227.285L80.6259 227.455V227.087L80.7108 226.436L80.2297 226.351L79.9467 226.238L79.6354 226.323L79.5788 226.549L79.6354 226.917L79.8335 227.455L79.7203 227.766L80.0316 228.303L80.1448 228.671L80.0882 229.18L79.8901 229.152L79.6354 228.898L79.2675 228.756L78.7581 228.728L78.56 228.615L78.5317 227.766L78.7015 227.653L78.3619 227.115V226.323H78.2204L78.0506 227.115L77.5695 226.804L77.9091 227.596L77.994 227.992L77.711 228.275L77.3714 228.219L77.0035 227.992L76.5224 227.596L76.0413 227.426L75.5036 227.002L75.2206 226.436L75.4753 225.842L75.2206 225.814L74.9659 226.069L74.8527 226.323L74.4565 225.927L73.4943 225.39L73.3811 225.107L73.8622 225.361L73.6924 225.05L73.4094 224.909L72.7302 224.711L72.2491 224.145L72.051 223.918L71.4284 223.268L71.2869 223.155L69.0795 221.118L68.4286 220.184L68.2022 219.194L68.5418 219.364V218.911L67.523 218.289L67.24 217.808L67.1268 217.44L66.5325 216.422L67.0702 216.62L66.8721 216.054L66.1363 215.205L65.4854 213.366L65.259 212.263L65.1458 211.895L64.8345 211.273L64.7213 210.933L64.5798 210.339L64.2685 209.915L64.1836 209.547L64.2968 209.264L64.5798 209.151L64.9477 209.179L65.3156 209.292L65.5703 209.519L65.9948 210.113L66.2778 210.283L65.9099 209.349L66.5608 209.886L67.4664 210.481L68.5418 210.848L69.7304 211.499L70.1832 211.839L70.7492 211.923L71.1737 211.867L71.5416 211.895L72.3906 211.442L73.183 210.877L73.6358 210.735L74.0603 210.537L74.5131 210.396L74.9376 210.481L75.6734 210.339L76.3243 210L77.0884 208.896L77.3997 208.755L78.1921 209.462L78.7015 209.745L79.1826 209.971L79.8052 210.056L80.2014 209.83L80.8806 208.896L81.0787 208.811L81.9277 208.981L82.239 208.925L82.7201 208.5L83.3144 208.331L83.5691 208.189L83.6823 207.934L83.654 207.736L83.4276 207.369L83.371 207.114L83.5691 206.548L83.9936 206.378L84.9841 206.407L85.4086 206.294L85.4652 206.152L85.5218 205.53L85.635 205.303L86.0312 204.879L86.484 204.54L86.8519 204.426L89.9083 203.946L90.2762 203.748L90.2479 203.238L92.427 203.436L93.1062 204.228L93.2194 204.455L93.1628 204.738L92.7949 205.105L92.3421 205.19L92.0308 205.841L91.2384 206.831L90.6724 207.255L90.163 207.736L89.8234 208.5L89.7102 209.575L89.5121 210.085L89.0876 210.283L88.9461 210.509L88.8046 210.99L88.6914 211.584V212.065L88.8612 212.602L89.1725 213.055L88.748 213.508L88.5216 214.017L88.465 214.356L87.9839 215.064L87.7292 215.884L87.7009 216.846L88.2386 217.553L88.5782 217.723L88.9178 217.751L89.1159 218.034L89.0027 218.487L89.2574 219.194L89.9932 219.137L91.9459 218.402L93.3892 219.307L93.5873 220.156L93.9552 220.948L94.6061 221.457L95.3702 221.797L95.6532 222.164Z" fill="#2249D1" stroke="white" stroke-width="0.8" stroke-linecap="round" stroke-linejoin="round"/>
<path d="M160.743 178.966L160.602 178.994L159.922 179.447L159.215 180.833L158.536 181.229L157.602 181.257L157.262 181.427L156.951 181.795L156.272 183.209L155.677 184.058L152.451 186.661L150.272 188.924L149.791 189.659L149.48 189.999L149.112 190.197L148.97 190.338L148.914 191.017L148.829 191.328L148.433 191.385L147.923 191.187L147.414 191.13L147.018 191.498L146.678 191.923L145.857 192.46L145.603 192.856L145.659 193.337L145.914 193.705L146.112 194.129L145.999 194.723L145.603 195.233L145.178 195.544L144.98 195.883L145.291 196.477L145.772 196.93L146.31 197.354L146.735 197.807L146.989 198.458L146.876 199.023L146.537 199.476L146.084 199.9L145.716 200.353L145.574 200.862L145.688 201.796L145.716 202.305L145.546 202.814L145.037 203.833L144.895 204.399L144.923 204.71L145.122 205.276L145.15 205.53L144.527 208.755L144.357 209.038L143.565 209.321L143.31 209.576L142.858 210.283L142.716 210.594L142.376 211.641L142.15 212.094L141.81 212.603L140.877 214.074L140.735 214.498L140.084 214.951L139.886 215.319L139.971 215.828L140.112 216.507L139.716 216.875L139.49 216.648L139.292 216.62L139.094 216.705L138.641 217.157L138.301 218.006L138.245 218.459L138.386 218.827V219.025L138.188 219.392L137.905 219.506L137.254 219.364L136.915 219.392L136.745 219.336L137.056 218.713L137.113 218.459L136.801 218.431L136.349 218.657L136.037 218.713L135.33 218.459L135.301 217.808L135.528 216.959L135.641 216.139H135.5L135.33 216.931L134.82 217.356L134.141 217.299L133.519 216.761L133.717 216.422L133.519 216.394L133.066 216.139L133.151 215.8L132.981 215.545L132.33 215.064L131.736 214.725L131.594 214.328L131.339 213.819L131.17 213.621L130.632 213.423L130.349 213.169L129.981 212.716L129.84 212.857L131.141 214.102L131.453 214.498L132.047 215.63L132.16 216.167L131.764 216.422L132.16 217.129L132.415 217.44L132.754 217.667L132.471 217.61L131.566 216.931L128.821 214.046L127.972 212.857L127.321 211.669L127.01 210.368L127.179 207.482L126.783 207.03L125.736 206.351L125.142 206.209L123.755 206.435L123.274 206.068L123.019 205.643L122.623 204.625L123.274 203.889L124.406 204.087L124.689 203.267L123.557 201.089L123.019 198.599L123.217 197.269L122.821 196.194L122.906 195.6L123.132 195.034L123.5 194.61L123.812 194.129L123.727 193.592L123.755 193.026L124.095 192.715L124.915 191.413L125.227 190.367L124.83 189.631L125.113 189.037L126.076 188.726L126.953 188.98L127.406 190.055L128 190.027L128.453 189.603L129.528 189.094L129.896 188.641L130.207 188.132H130.83L131.509 188.443L131.905 187.82L132.33 186.038L132.783 185.331L133.32 184.624L134.651 183.294L134.849 181.681L134.396 180.974L134.566 180.182L136.037 179.362L135.952 178.598L135.471 177.975L135.217 177.325L135.103 176.589L134.707 176.137L134.622 175.882L134.452 175.656L133.83 175.203L132.924 174.156L132.585 172.855L133.349 172.77L134.056 172.402L134.707 171.695L135.386 171.186H136.32L137.254 171.356L138.301 171.327L139.292 171.073L140.084 170.648L140.48 169.969L140.254 169.064L140.565 168.3L142.093 167.734L143.707 167.876L145.405 168.47L148.235 170.139L148.801 171.356L148.574 172.77L149.027 173.166L149.678 173.308L151.008 173.279L154.715 172.572L156.809 173.647L159.611 176.957L160.29 178.202L160.743 178.966Z" fill="#2249D1" stroke="white" stroke-width="0.8" stroke-linecap="round" stroke-linejoin="round"/>
<path d="M92.8802 195.401L92.2859 198.145L91.8048 199.22L91.6067 200.38L91.3237 200.945L90.8709 201.426L90.3049 201.681L89.8238 202.19L90.2483 203.237L90.2766 203.746L89.9087 203.944L86.8523 204.425L86.4844 204.538L86.0316 204.878L85.6354 205.302L85.5222 205.528L85.4656 206.151L85.409 206.292L84.9845 206.405L83.9939 206.377L83.5695 206.547L83.3714 207.113L83.4279 207.367L83.6544 207.735L83.6827 207.933L83.5695 208.188L83.3148 208.329L82.7205 208.499L82.2394 208.923L81.9281 208.98L81.0791 208.81L80.881 208.895L80.2018 209.829L79.8056 210.055L79.183 209.97L78.7019 209.744L78.1924 209.461L77.4001 208.754L77.0888 208.895L76.3247 209.998L75.6738 210.338L74.938 210.479L74.5135 210.394L74.0607 210.536L73.6362 210.734L73.1834 210.875L72.391 211.441L71.542 211.894L71.1741 211.865L70.7496 211.922L70.1836 211.837L69.7308 211.498L68.5422 210.847L67.4668 210.479L66.5612 209.885L65.9103 209.348L65.7971 208.98L66.2782 209.036L66.7593 209.15L66.5895 208.867L65.9386 208.159L65.7122 208.018L65.6273 208.131V208.555L65.5424 208.64L65.1745 208.697L64.8066 208.81L64.5236 208.669L63.9576 208.782L63.7029 208.64L63.6463 208.471L63.7029 207.594L63.5897 206.519L63.1086 204.397L63.2218 204.086L63.7878 203.944L65.3443 203.916L65.7971 203.803L65.9103 204.171L66.1084 204.453L66.3065 204.312L66.4763 203.944L66.731 203.69L67.5517 203.378L67.9479 203.322H68.3158L68.5139 203.18L67.9479 202.699L67.7215 202.332L67.6083 201.624L67.6649 201.257L67.8064 200.974L68.1177 200.776L68.4856 200.691L69.2497 200.719L69.5327 200.578L69.8157 200.266L70.1553 199.729L69.7874 199.899L69.4478 200.182L69.1365 200.351L68.6837 200.238L68.3724 200.578L67.8347 200.436L67.2687 200.719L66.9291 201.257L67.0706 201.851L66.8159 202.445L66.5046 202.784L66.1084 202.869L65.6273 202.671L65.3443 202.247L65.0613 202.19L64.9481 202.332L65.0047 202.643L65.316 203.152L63.9293 203.095L61.2974 202.19L60.9861 201.681L60.222 201.002L59.7409 200.662L59.5711 200.153L59.5145 199.644L59.5994 199.418L59.7409 199.333L60.1371 198.908L60.505 198.739L62.8256 198.824L63.6746 198.993L64.184 199.248H64.3255L64.5802 198.937L64.9481 198.088L65.1462 197.805L65.4575 197.664L65.8254 197.692L66.165 197.777L66.4197 197.975L66.6744 198.767L67.0423 198.682L67.0706 198.286L66.9008 197.918L66.5046 197.522L66.0235 197.183L65.6273 196.985L65.1745 197.013L64.9481 197.239L64.6651 197.975L64.4104 198.201L64.0142 198.371L63.5897 198.484L63.2218 198.456L62.769 198.201L62.5709 197.862V197.466L63.0237 196.164L63.0803 195.825L63.0237 195.372H62.8822L62.2596 197.155L62.0049 197.607L61.6936 197.918L61.2691 198.088L60.7314 198.116L60.4767 198.201L59.9107 198.512L59.3164 198.739L58.8636 198.456L58.4957 198.116L58.1278 197.664L57.8448 197.183L57.6184 196.504L57.1656 195.74L57.0807 195.202L57.1373 194.722L57.2788 194.184L57.5052 193.76L57.7882 193.562L58.0712 193.675L58.5523 194.043L58.7221 194.099L58.8353 193.929L58.6938 193.477L58.7221 193.25L59.4579 192.6L61.3823 191.893L61.92 190.987L61.4389 191.072L60.6182 191.808L59.7126 192.091L57.9014 193.024L57.5618 193.279L56.3732 194.382L56.1468 194.354L55.2695 192.43L55.1562 192.289L57.7882 185.867L59.4579 186.659L60.5616 187.932L60.3352 189.516L60.5333 190.733L61.0144 191.1L61.4106 190.931L62.769 189.742L62.6558 188.979L62.8822 188.385L64.4104 188.469L65.1179 188.356L65.9952 188.413L66.9008 189.063L67.58 189.29L67.8064 189.092L67.9479 188.781L69.2497 187.96L70.693 187.904L73.4381 189.403L74.7399 190.817L75.5323 191.242L76.1832 191.751L76.07 192.6L75.5889 193.448L75.6738 193.703L75.9568 193.929L76.07 194.212L75.9851 194.495L76.0134 194.863L76.4096 195.004L76.8341 194.976L79.1264 194.495L80.3433 193.618L81.3055 192.487L82.6073 191.496L83.5978 190.365L83.8808 189.46L83.8525 188.526L83.5412 188.271L83.1167 188.158L81.7017 186.857L80.9942 185.669L80.7112 184.735L80.6263 183.943L79.8622 182.613L79.9471 181.765L80.2867 181.086L80.8244 180.576L81.6451 180.661L82.2394 181.284L82.7205 182.047H83.3714L84.3336 180.831L84.9562 180.435L87.1919 179.501L90.0502 177.776L91.4935 177.182L92.3142 177.153L93.1632 177.295L93.8141 177.068L94.5499 176.191V176.927L94.6631 177.634L95.3139 179.954L95.4555 181.255L95.88 182.415L95.9649 183.321L96.0781 183.66L96.3894 184.254L96.5026 184.565L96.5309 184.905L96.4743 185.952L96.3611 186.263L96.2196 186.461L95.6536 186.687L95.2008 187.055L95.0876 187.592L95.1725 188.837L94.8612 190.054L94.8895 190.676L94.748 191.1L93.8141 192.345L93.3613 193.166L93.1349 193.76L92.9651 194.41L92.8802 195.401Z" fill="#2249D1" stroke="white" stroke-width="0.8" stroke-linecap="round" stroke-linejoin="round"/>
<path d="M94.5494 176.192L93.8136 177.069L93.1627 177.295L92.3137 177.153L91.493 177.182L90.0497 177.776L87.1914 179.502L84.9557 180.435L84.3331 180.831L83.3709 182.048H82.72L82.2389 181.284L81.6446 180.661L80.8239 180.577L80.2862 181.086L79.9466 181.765L79.8617 182.614L80.6258 183.943L80.7107 184.735L80.9937 185.669L81.7012 186.857L83.1162 188.158L83.5407 188.272L83.852 188.526L83.8803 189.46L83.5973 190.365L82.6068 191.497L81.305 192.487L80.3428 193.618L79.1259 194.495L76.8336 194.976L76.4091 195.005L76.0129 194.863L75.9846 194.495L76.0695 194.213L75.9563 193.93L75.6733 193.703L75.5884 193.449L76.0695 192.6L76.1827 191.751L75.5318 191.242L74.7394 190.818L73.4376 189.403L70.6925 187.904L69.2492 187.96L67.9474 188.781L67.8059 189.092L67.5795 189.29L66.9003 189.064L65.9947 188.413L65.1174 188.356L64.4099 188.47L62.8817 188.385L62.6553 188.979L62.7685 189.743L61.4101 190.931L61.0139 191.101L60.5328 190.733L60.3347 189.516L60.5611 187.932L59.4574 186.659L57.7877 185.867L57.816 185.103L57.3632 184.424L56.8255 184.113L56.3161 184.028L56.2595 183.717L55.7784 183.123L55.2124 182.642L54.7313 182.359L54.5898 182.133L54.9294 181.482L55.0426 180.803L55.3822 180.294L55.8916 180.124L56.4859 179.813L56.8255 179.219L56.9953 178.511L57.3915 177.917L57.9292 176.673L57.5047 175.428L57.1085 174.777L56.9104 174.692L56.7972 174.494V173.759L56.8821 173.419L56.967 172.655L57.25 172.146L57.9575 171.241L58.8065 170.42L59.1178 169.798L59.4857 169.289V168.666L59.7687 168.355L60.1649 168.185H66.7588L67.8342 169.034L67.438 169.628L67.2116 170.307L67.8342 171.863L68.3436 171.778L69.5039 170.845L70.1831 170.901L70.4944 171.184L71.2302 171.354L71.6264 171.213L71.8811 171.043L72.2207 170.477L72.3339 170.138L72.6169 168.638L72.8433 168.044L73.381 167.903L73.3527 167.535L73.664 167.11L73.5791 166.828L73.2395 166.12L73.2961 165.272L73.6074 164.423L74.23 163.772L74.5413 163.348L74.6828 162.782L75.7582 160.292L75.7016 160.066L75.7299 159.755L76.2393 159.161L76.8053 158.652L77.2015 158.397L77.5128 158.058L77.7392 157.294L77.6543 156.756L77.5128 156.417L77.4279 155.681L77.6826 155.172L77.5694 154.748L76.8619 154.295L77.0883 153.475L77.3996 153.192L78.0505 153.05L78.3335 152.909L78.8712 152.258L79.2957 151.551L79.6919 151.749L80.173 151.664L80.5692 151.919L80.4843 152.371L81.2484 152.626L81.4182 153.163L81.1635 154.21L81.7578 155.03L82.8332 155.002L83.9086 154.55L84.3897 154.267L84.8425 154.153L85.0972 154.578L85.4368 154.861L86.2292 155.398L86.8801 156.162L87.4461 156.19L88.3234 155.964L88.8045 156.021L89.3988 156.558L89.9365 157.888L90.2478 158.312L90.361 158.765L90.6723 159.217L91.8326 158.991L92.7948 158.595L93.4174 158.538L93.7853 158.821L94.04 159.133L94.0966 159.557L94.4079 159.727L95.0305 159.925L95.0871 160.123L95.455 160.943L95.5682 161.622L95.455 162.046L95.172 162.923L95.0588 164.168L94.8607 164.706L94.8324 164.96L94.8607 166.007L94.8041 166.205L94.1815 167.535L93.9268 168.468L93.8985 168.864L94.04 170.109L93.9551 173.136L94.04 174.155L94.5211 175.484L94.5494 176.192Z" fill="#2249D1" stroke="white" stroke-width="0.8" stroke-linecap="round" stroke-linejoin="round"/>
<path d="M114.728 189.492L114.756 190.878L114.558 192.406L115.945 193.113L119.369 193.141L120.643 193.735L120.813 194.556L121.209 195.291L121.973 195.886L122.822 196.197L123.218 197.272L123.02 198.601L123.558 201.091L124.69 203.269L124.407 204.09L123.275 203.892L122.058 202.93L120.728 202.194L119.935 200.949L118.775 200.129L117.869 199.988L117.247 200.44L117.388 202.053L116.822 203.354L116.794 203.665L117.36 203.835L117.615 204.288L117.473 204.74L116.794 205.193L115.577 205.023L114.53 205.306L114.502 205.787L114.728 206.211L114.785 206.664L114.445 208.164L114.36 209.182L114.502 210.285L114.36 211.332L113.596 212.096L113.058 212.945L113.37 214.104L113.228 214.529L113.172 214.925L113.681 215.858L113.851 216.849L112.266 215.774L111.021 215.745L110.144 215.378L109.21 215.406L107.285 215.802L106.323 215.519L106.012 213.68L108.446 209.946L108.559 208.786L108.078 207.909L109.804 202.93L110.71 201.94L110.993 201.346L111.191 200.723L111.53 200.242L111.7 199.676V199.026L111.587 198.375V197.724L111.417 197.13L111.162 196.678L111.36 196.338L111.615 195.263L111.304 192.604L110.398 191.783L109.747 191.642L108.559 191.048L108.049 190.595L109.153 189.209L110.738 188.36L110.936 188.558L112.068 188.389L113.2 188.332L114.728 189.492Z" fill="#018796" stroke="white" stroke-width="0.8" stroke-linecap="round" stroke-linejoin="round"/>
<path d="M108.077 207.907L107.398 208.105L106.634 208.219L105.389 207.851L102.446 208.134L99.1062 207.907L96.6441 206.295L96.4743 205.984L95.9083 205.559L95.6819 205.305L95.6536 204.484L95.9932 203.72L96.1913 202.051L95.2291 201.033L94.3518 201.231L93.5311 201.174L93.3613 200.637L94.0971 196.931L94.3801 196.11L95.9366 194.837L97.7761 194.328L98.7949 194.752L99.7288 194.498L100.634 192.602L100.946 191.584L101.851 191.046L102.898 190.792L103.974 190.679L106.125 191.131L107.087 190.82L108.049 190.594L108.558 191.046L109.747 191.64L110.398 191.782L111.304 192.602L111.615 195.262L111.36 196.337L111.162 196.676L111.417 197.129L111.587 197.723V198.374L111.7 199.024V199.675L111.53 200.241L111.19 200.722L110.992 201.344L110.709 201.938L109.804 202.928L108.077 207.907Z" fill="#018796" stroke="white" stroke-width="0.8" stroke-linecap="round" stroke-linejoin="round"/>
<path d="M110.738 188.36L109.153 189.209L108.05 190.595L107.087 190.821L106.125 191.132L103.974 190.68L102.899 190.793L101.852 191.048L100.946 191.585L100.635 192.603L99.7295 194.499L98.7956 194.754L97.7768 194.329L95.9373 194.838L94.3808 196.111L93.5884 196.055L92.8809 195.404L92.9658 194.414L93.1356 193.763L93.362 193.169L93.8148 192.349L94.7487 191.104L94.8902 190.68L94.8619 190.057L95.1732 188.841L95.0883 187.596L95.2015 187.059L95.6543 186.691L96.2203 186.464L96.3618 186.266L96.475 185.955L96.5316 184.909L96.5033 184.569L96.3901 184.258L96.0788 183.664L95.9656 183.324L95.8807 182.419L95.4562 181.259L95.3147 179.958L94.6638 177.638L94.5506 176.931V176.195L94.777 176.139L95.2864 176.167L95.909 176.308L96.5033 176.195L97.2957 175.431L97.8051 173.111L98.3711 171.98L99.9559 170.48L100.154 171.131L100.126 171.895L100.437 172.036L101.71 171.98L103.069 172.574L103.805 172.715L104.54 173.027L104.427 174.639L103.125 176.054L102.475 177.836L102.701 178.43L103.041 178.6L103.833 178.741L104.173 178.939L104.654 179.59L105.616 181.768L105.305 182.051V182.504L105.163 183.211L105.361 183.494L105.729 183.409L106.069 183.155L106.437 183.409L106.55 183.975L107.116 184.399L106.974 185.22L107.257 185.899L107.653 186.549L107.908 187.285L108.418 187.879L109.068 187.992L109.691 187.794L109.946 187.822L110.37 188.077L110.483 188.332L110.738 188.36Z" fill="#018796" stroke="white" stroke-width="0.8" stroke-linecap="round" stroke-linejoin="round"/>
<path d="M113.794 163.378L114.02 164.34L114.926 166.235L115.577 167.056L116.369 167.791L117.246 168.442L118.152 168.866L119.086 168.753L119.793 168.216L120.642 167.989L121.605 168.47L122.199 169.432L122.454 170.564V171.724L121.661 173.93L120.076 174.1L119.284 174.015L118.548 174.496L119.482 177.523L119.454 179.192L118.435 182.361L118.859 182.983L118.888 183.294L119.142 184.285L119.199 185.02L119.369 185.756L119.425 186.463L118.944 187.17L118.378 187.821L118.209 189.009L118.492 190.226L117.841 190.565L117.02 189.773L116.511 189.433L115.916 189.122L114.728 189.49L113.199 188.33L112.067 188.387L110.935 188.556L110.737 188.358L110.483 188.33L110.369 188.075L109.945 187.821L109.69 187.793L109.068 187.991L108.417 187.877L107.907 187.283L107.653 186.548L107.256 185.897L106.973 185.218L107.115 184.398L106.549 183.973L106.436 183.408L106.068 183.153L105.728 183.408L105.36 183.492L105.162 183.21L105.304 182.502V182.05L105.615 181.767L104.653 179.588L104.172 178.938L103.832 178.74L103.04 178.598L102.7 178.428L102.474 177.834L103.125 176.052L104.426 174.638L104.54 173.025L103.804 172.714L103.068 172.572L101.71 171.978L100.436 172.035L100.125 171.893L100.153 171.13L99.9551 170.479L100.578 169.206L101.37 168.697L101.54 169.46L101.71 169.602L102.078 170.139L102.672 170.422L103.691 169.602L104.596 168.527L106.549 167.141L107.738 166.066L109.068 164.283L109.52 163.887L110.256 163.633L110.992 163.039L111.869 162.586L113.001 162.671L113.794 163.378Z" fill="#018796" stroke="white" stroke-width="0.8" stroke-linecap="round" stroke-linejoin="round"/>
<path d="M132.586 172.854L132.925 174.155L133.831 175.202L134.454 175.654L134.623 175.881L134.708 176.135L135.104 176.588L135.218 177.323L135.472 177.974L135.953 178.596L136.038 179.36L134.567 180.181L134.397 180.973L134.85 181.68L134.652 183.293L133.322 184.622L132.784 185.33L132.331 186.037L131.906 187.819L131.51 188.441L130.831 188.13H130.208L129.897 188.64L129.529 189.092L128.454 189.601L128.001 190.026L127.407 190.054L126.954 188.979L126.077 188.724L125.115 189.036L124.832 189.63L125.228 190.365L124.916 191.412L124.096 192.713L123.756 193.025L123.728 193.59L123.813 194.128L123.501 194.609L123.133 195.033L122.907 195.599L122.822 196.193L121.973 195.882L121.209 195.288L120.813 194.552L120.643 193.732L119.37 193.138L115.945 193.109L114.559 192.402L114.757 190.874L114.728 189.488L115.917 189.12L116.511 189.432L117.021 189.771L117.841 190.563L118.492 190.224L118.209 189.007L118.379 187.819L118.945 187.168L119.426 186.461L119.37 185.754L119.2 185.018L119.143 184.283L118.888 183.293L118.86 182.981L118.436 182.359L119.454 179.191L119.483 177.521L118.549 174.494L119.285 174.013L120.077 174.098L121.662 173.929L122.426 175.569L124.039 176.56L125.086 175.145L125.313 173.165L125.681 172.373L126.671 172.231H127.605L128.51 172.005L129.388 170.845L129.925 170.732H130.463L130.718 170.364L130.831 170.109L131.312 170.138L131.567 170.534L131.737 171.439L132.048 172.231L132.586 172.854Z" fill="#018796" stroke="white" stroke-width="0.8" stroke-linecap="round" stroke-linejoin="round"/>
<path d="M143.169 80.5687L142.914 82.1246L142.094 83.5674L142.433 84.1898L143.141 84.5859L143.679 85.0951L144.188 85.6892L143.962 86.3682L143.848 87.1603L143.282 87.9241L142.433 88.3202L141.245 89.6498L140.82 91.4321L141.443 93.2427L140.509 96.3829V98.2218L140.367 99.1554L140.566 99.9475L139.603 101.305V101.702L139.547 102.126L138.868 102.635V106.03L139.83 107.444L140.933 108.604L141.839 109.877L141.726 111.348L141.245 112.706L140.367 113.725L139.773 115.139L139.009 116.469L138.019 117.487L137.085 117.601L136.519 117.035L136.207 116.497L135.755 116.045L134.792 114.8L132.67 114.234L131.906 113.923L131.283 114.517L129.925 116.441L128.057 117.459L127.463 115.168L127.208 112.367L126.274 111.801L125.51 111.207L125.538 110.585L125.312 110.047L124.548 109.34L123.104 109.566L122.199 111.235L121.378 111.603L120.586 111.264L119.793 111.207L119.227 110.726L118.463 110.783L117.897 110.5L117.558 109.849L116.907 110.16L116.143 110.33L115.718 109.51L114.869 109.198L114.133 110.245L113.624 110.613L113.03 110.358L112.379 110.273L111.728 110.245L109.492 110.5L108.926 110.358L108.332 110.528L108.19 110.16L108.445 109.425L108.502 109.085L108.105 108.576L107.794 108.378L107.313 107.642L107.511 106.765L108.785 105.832L108.926 105.379L109.011 104.898L109.237 104.502L109.577 104.191L110.115 103.597L109.973 102.833L109.266 102.465L108.926 101.871L109.124 101.221L108.615 100.796L107.766 100.542L107.285 99.8909L107.794 99.4949L108.53 99.4383L109.153 98.9291L109.181 98.0521L108.728 94.2329L107.596 93.4407L104.115 93.4973L102.361 93.2993L100.691 92.5637L99.6154 91.1775L100.181 90.5268L100.974 90.0176L101.596 89.2538L102.361 88.6314L103.125 88.1222L103.691 87.3866L103.747 86.5662L103.04 86.0853L101.37 85.4629L100.861 84.9254L101.172 84.0767L101.144 82.1529L99.8418 81.0496L99.0211 81.3042L98.6249 81.191L98.4834 79.2673L98.2853 78.7864L97.5495 78.5035L96.7005 78.4469L95.9364 78.7581L96.0496 79.7199L95.5119 80.0877L94.6063 79.9463L93.729 80.116L92.0027 80.9081L91.2669 80.7667L90.9556 80.0311L90.333 79.6068L88.6633 79.9746L85.8616 82.1529L84.6447 83.4826L84.1353 84.2747L83.541 84.9537L82.7203 85.0668L82.3241 84.2464L81.7298 83.5391L80.9657 82.9733L80.8242 82.1529L80.9091 81.672L81.0506 81.3891L81.1072 80.4272L81.1638 80.1443L81.5034 79.3239L81.6166 78.7864L81.5883 78.2206L81.1921 77.0041L81.1638 76.41L81.3053 74.4014L81.5034 73.8073L81.9562 73.2698L82.4373 73.0434L83.5127 72.6757L83.8523 72.3645L83.9655 72.0533L83.9938 71.4309L84.1919 71.1197L84.4183 70.95L84.9843 70.7519L85.239 70.5822L85.522 70.2144L85.9465 69.3374L86.2295 68.9696L86.6823 68.7999L87.1917 68.8565L88.7482 69.4223L89.2576 69.5355H89.7953L91.3235 69.0828H91.9744L94.3799 68.1775L94.7761 67.9229L95.144 67.6117L95.4553 67.2156L95.6817 66.6781L96.1345 64.5281L96.3892 63.7925L96.8703 63.1984L98.54 62.1517L98.9928 61.6708L99.389 60.9635L100.464 61.501L101.03 61.6425L102.276 61.6708L102.785 62.0385L103.068 62.6043L102.983 63.057L102.615 63.3399L101.964 64.0471L101.993 64.7261L103.719 65.1787L104.54 65.688L105.785 66.961L106.549 67.0742L107.341 66.6498L107.907 66.0275L107.879 65.3202L107.483 64.7261L107.879 63.4247L109.662 63.453L110.511 63.7642L111.162 63.3965L111.275 62.5478L111.671 61.7839L113.143 60.9069L114.869 61.2464L115.775 61.6425L116.595 62.2366L117.048 62.8589L117.727 63.1701L119.624 62.378L120.444 61.1332L122.057 60.9918L124.831 58.9266L128.142 57.8516L128.963 58.2476L128.934 59.1529L128.51 59.945L128.397 60.7938L128.878 61.5859L129.642 62.0951L131.283 62.6892L132.047 63.3116L132.642 64.1037L134.283 64.7261L136.066 65.207L138.471 67.7815L138.924 71.1197L138.471 72.9586L138.839 75.8159L138.5 76.7212L137.509 76.9758L137.028 77.6265L138.302 78.7298L140.198 78.9561L141.245 80.2009L141.698 80.4272L142.66 80.6818L143.169 80.5687Z" fill="#6D769D" stroke="white" stroke-width="0.8" stroke-linecap="round" stroke-linejoin="round"/>
<path d="M187.146 33.6078L184.033 35.7013L182.788 35.3901L182.052 34.9091L180.298 35.2203L179.562 35.5032L179.024 36.0125L178.685 37.0592L178.458 38.1342L176.76 42.9153L176.619 43.7074L176.817 44.6976L176.449 45.518L169.261 48.2621L168.497 48.7714L167.704 49.1391L165.723 49.3089L164.45 50.4405L163.969 52.2228L164.959 52.9018L166.402 52.5057L167.251 52.3925L168.044 52.5906L168.412 53.3827L168.78 55.1084L168.808 55.9288L168.016 57.3999L167.931 58.192L168.383 58.8427H169.148L169.572 58.7013L170.534 60.427L172.798 63.454L174.525 64.133L178.26 64.8402L180.269 64.9251L181.967 65.4909L181.854 66.2831L181.288 66.9337L180.496 67.443L177.892 68.4614L177.383 70.074L177.666 70.951L177.015 71.347L176.109 71.0075L175.289 70.5832L171.581 70.8661L170.223 70.3003L169.685 68.9706L169.883 67.443V65.887L169.346 64.4442L168.327 63.4823L166.968 63.8218L163.94 64.0481L162.752 63.6238L161.818 62.4356L160.346 62.6619L158.846 62.577L157.375 61.9546L155.988 61.5586L154.545 61.5303L154.601 61.2191L154.573 60.5684L154.601 60.2572L154.828 59.5217L155.196 58.871L157.29 56.9755L157.488 56.438L156.979 56.0986L156.667 56.0137L156.13 55.6742L155.479 54.9669L155.139 54.4577L154.601 53.0998L154.347 52.9018L153.696 52.8169L152.677 52.9018L152.309 52.5623L152.62 51.0912L153.469 49.8464L153.696 49.2806L153.781 48.6865L154.064 47.951L154.12 47.1305L153.781 45.6877L153.526 44.9805L152.422 44.8673L151.602 45.4331H150.13L150.102 44.8107L149.932 44.2449L149.762 44.1601L148.772 44.3015L148.234 44.4995L147.753 44.2449L147.441 43.7074L147.64 43.3396L147.866 43.0002L148.007 42.6041L147.979 40.3692L146.989 39.1527L145.517 38.9829L144.187 38.5303L143.989 37.7947L144.017 36.9743L143.734 36.2954L143.14 35.8993L142.517 35.5598L141.951 35.1355L141.753 34.2867L141.781 33.3532L141.668 32.7308L141.102 32.4762L139.574 32.0801L138.187 31.8821L136.801 32.1367L135.612 32.7591L134.905 33.8341L134.508 35.0223L134.225 35.4749L133.801 35.2203L133.716 34.8808V34.5414L133.546 34.117L132.358 31.9952L132.075 31.2597L131.565 30.7222L129.697 30.6656L128.452 29.9017L128.424 28.3458L128.622 26.7332L128.933 26.1109L131.452 25.7148L133.15 25.6865L134.678 25.8845L138.301 25.7148L138.753 26.1391L139.178 27.3839L139.8 28.4872L140.366 28.8267L140.932 29.053L141.47 29.0247L142.234 28.6004L142.517 28.9682L142.857 29.2794L143.791 29.3642L145.064 29.0813L146.196 28.4589L147.243 27.6385L147.498 27.2142L147.668 26.7615L147.894 26.422L148.177 26.1674L148.573 25.9694L148.715 25.3753L155.592 26.1957H156.469L157.714 25.8279L158.139 25.7997L163.148 26.3938L163.629 26.3655L164.054 26.1109L164.506 25.6865L165.129 25.8562L167.365 26.6201L169.431 25.7148L169.798 25.1207L170.053 24.47L170.478 24.1588L172.119 23.4516L173.251 23.1687L175.487 22.2634L176.534 21.9805L177.524 22.2917L178.119 23.2252L178.741 25.6299L178.968 26.2523L179.986 26.3938L181.543 25.9411L182.307 26.026L183.156 26.422L184.033 26.6201L184.826 26.5918L185.477 27.0727L186.212 28.6287L186.637 32.0518L187.146 33.6078Z" fill="#6D769D" stroke="white" stroke-width="0.8" stroke-linecap="round" stroke-linejoin="round"/>
<path d="M148.716 25.3748L148.575 25.9689L148.179 26.1669L147.896 26.4216L147.669 26.761L147.5 27.2137L147.245 27.638L146.198 28.4585L145.066 29.0808L143.792 29.3637L142.858 29.2789L142.519 28.9677L142.236 28.5999L141.472 29.0243L140.934 29.0525L140.368 28.8262L139.802 28.4867L139.179 27.3834L138.755 26.1386L138.302 25.7143L134.68 25.884L133.151 25.686L131.453 25.7143L128.935 26.1104L128.623 26.7327L128.425 28.3453L128.454 29.9013L129.699 30.6651L131.567 30.7217L132.076 31.2592L132.359 31.9947H131.199L130.123 32.3342L129.557 33.3527L128.765 35.6725L127.916 36.4929L123.784 38.0489L121.973 39.3219L121.69 40.3969L121.916 42.745L121.775 47.7807L122.284 49.3367L122.397 50.1005L122.369 50.5532L122.228 51.0058L122.313 51.3736L122.539 51.6848L123.133 53.1842L123.218 54.1177L122.143 54.3723L120.841 55.0513L119.737 55.3342L119.001 56.2112L118.634 57.3711L118.464 58.531L118.832 59.7475L120.445 61.1337L119.624 62.3785L117.728 63.1706L117.049 62.8594L116.596 62.237L115.775 61.6429L114.87 61.2469L113.143 60.9074L111.672 61.7844L111.276 62.5482L111.162 63.3969L110.511 63.7647L109.662 63.4535L107.88 63.4252L107.483 64.7266L107.88 65.3207L107.908 66.0279L107.342 66.6503L106.549 67.0747L105.785 66.9615L104.54 65.6885L103.719 65.1792L101.993 64.7266L101.965 64.0476L102.616 63.3404L102.984 63.0575L103.069 62.6048L102.786 62.039L102.276 61.6712L101.031 61.6429L100.465 61.5015L99.3895 60.964L99.7574 59.889L99.9838 58.7856L99.8989 57.9369L100.04 57.1165L99.248 55.6454L100.125 51.3453L101.484 50.6946H103.238L103.719 51.0341L104.116 50.8361L105.106 50.0722L105.672 49.5064L105.785 48.7143L106.21 48.3182L106.946 48.5163L107.653 48.2334L107.398 46.8188L106.097 45.7438L105.304 45.376L104.823 44.7819L105.219 44.0464L105.729 42.6319L105.87 42.0095L105.729 41.2739L105.531 40.595L105.389 39.3502L105.05 38.1337L104.399 36.8607L104.512 35.4179L104.002 34.2014L103.267 24.2432L103.663 21.7254L104.285 21.4425L105.417 20.4523L106.832 18.7549L107.37 18.67L109.804 19.1227H110.653L111.389 18.868L119.964 13.6909L120.756 13.3232L121.577 13.2383L127.548 14.087L128.171 14.3416L128.454 14.5679L129.02 15.0771L129.642 15.5015L130.463 16.1239L130.803 16.2936L131.482 16.4634L131.821 16.6331L132.133 16.916L132.727 17.6233L135.076 19.7733L135.585 19.9714L136.208 19.6885L137.057 19.6319L137.708 19.7733L138.274 20.0279L139.293 20.8201L139.745 21.3293L140.425 22.4609L140.849 22.9418L141.698 23.4511L147.896 25.2899L148.716 25.3748Z" fill="#6D769D" stroke="white" stroke-width="0.8" stroke-linecap="round" stroke-linejoin="round"/>
<path d="M96.3901 17.3686L95.2015 18.3022L93.362 19.3772H91.0697L88.7774 18.8114L88.3812 18.4436L88.0133 17.991L87.1643 17.7364L86.6549 17.6515H85.5512L85.2116 17.9627L85.0984 18.5568L85.0701 19.2075L84.7871 20.1976L84.2211 20.3674L83.2872 19.9996L81.5892 20.2259L80.0893 21.0463L79.8346 21.7253L80.2308 25.8557L79.5516 27.1853L78.7026 27.5531L77.8253 27.8077L72.5049 28.3169L71.3163 29.2505L70.439 30.6933L69.2221 32.2493L68.0901 33.0131L67.9486 34.5974L68.4297 36.3797L68.5146 38.2468L67.3543 39.5199L60.1661 39.8028L56.6852 39.237L55.8362 42.1226L55.6381 53.4104L55.1853 53.6933L54.6759 53.7499L54.4212 53.3821L54.0533 53.1558L53.5156 53.3255L53.1477 53.1275L52.6383 53.0143L52.1572 53.1275L47.6858 55.1644L46.8651 56.1829L45.818 56.8335L44.7709 56.4658L44.0068 55.617L44.2049 53.3255L45.252 51.0623L46.0444 47.2997L45.8746 38.0488L46.7236 36.5494L48.4216 36.125L50.0347 36.6343L51.0818 36.0967L51.1667 34.2862L50.4592 30.4104L50.5724 29.4768L50.7988 28.5998L50.9969 26.8458L50.4592 25.3464L49.6668 23.9885L49.8083 22.9983L50.063 22.0931L50.2045 21.7536L50.3177 21.3858V20.9332L50.3743 20.4805L50.7422 19.7733L50.8271 19.0094L50.4026 18.5002L49.78 18.6982L49.3555 19.2923L48.9876 19.9147L48.2518 20.3674L47.3745 20.2825L46.5255 19.8864L45.7331 19.3206L44.9124 19.0377L44.0634 18.8114L42.4786 18.2173L41.007 17.3403L40.2995 16.6613L39.5637 16.0672L38.7147 16.2653L37.894 16.6613L36.3658 16.4067L34.5829 16.4633L34.3848 16.4916L34.4697 15.9541L34.498 10.1546L36.0262 10.098L36.7337 9.95653L37.4129 9.64533L41.0919 6.08076L42.1956 5.28863L43.4691 4.77941L50.9686 2.94054L51.7327 2.85567L52.2704 3.11028L52.7798 3.6195L53.3175 3.84583L54.7042 3.9307L57.0814 3.50634L60.4491 3.64779L61.2698 3.50634L61.5245 3.39318L62.2603 2.85567L62.5716 2.4596L62.9678 1.5826L63.2508 1.21483L63.9017 0.875346L67.3826 0.28125L68.1467 0.450992L81.476 5.76957L81.9854 6.08076L82.2401 6.02418L83.5985 5.26034L84.0513 5.14718L85.7493 5.54324L87.3058 6.44853L90.6169 9.58875L94.4657 13.8323L96.3901 17.3686Z" fill="#6D769D" stroke="white" stroke-width="0.8" stroke-linecap="round" stroke-linejoin="round"/>
<path d="M103.662 21.7239L103.266 24.2417L104.001 34.1999L104.511 35.4164L104.398 36.8592L105.049 38.1323L105.388 39.3487L105.53 40.5935L105.728 41.2725L105.869 42.008L105.728 42.6304L105.218 44.0449L104.822 44.7805L105.303 45.3746L106.096 45.7423L107.397 46.8174L107.652 48.2319L106.945 48.5148L106.209 48.3168L105.784 48.7128L105.671 49.5049L105.105 50.0708L104.115 50.8346L103.718 51.0326L103.237 50.6931H101.483L100.124 51.3438L99.247 55.6439L100.039 57.115L99.8979 57.9354L99.9828 58.7842L99.7564 59.8875L99.3885 60.9625L98.9923 61.6698L98.5395 62.1507L96.8698 63.1974L96.3887 63.7915L96.134 64.5271L95.6812 66.6771L95.4548 67.2147L95.1435 67.6107L94.7756 67.9219L94.3794 68.1765L91.9739 69.0818H91.323L89.7948 69.5345H89.2571L88.7477 69.4213L87.1912 68.8555L86.6818 68.7989L86.229 68.9687L85.946 69.3364L85.5215 70.2134L85.2385 70.5812L84.9838 70.7509L84.4178 70.949L84.1914 71.1187L83.9933 71.4299L83.965 72.0523L83.8518 72.3635L83.5122 72.6747L82.4368 73.0425L82.0689 71.4582L80.2577 68.4029L79.2672 67.0732L79.0691 63.4238L77.2579 60.5382L76.324 60.1704L75.8712 59.4348L76.4655 57.6243L76.5787 55.9834L75.475 54.9084L74.5977 54.5972L72.8431 54.286L72.4469 54.3992L72.079 54.5972L68.5132 54.8518L67.0982 54.5406L65.0606 53.6636L64.721 52.9564L64.155 52.5037L62.8249 52.7017L62.2589 52.6735L61.7495 52.4188L61.2401 52.4471L60.8439 52.8715L60.6458 53.4373L60.2213 53.6919L59.6836 53.7202L58.4384 54.0314L57.9573 53.9182L57.5611 53.607L56.5989 53.2393L55.6367 53.409L55.8348 42.1212L56.6838 39.2356L60.1647 39.8014L67.3529 39.5185L68.5132 38.2454L68.4283 36.3783L67.9472 34.596L68.0887 33.0117L69.2207 32.2479L70.4376 30.6919L71.3149 29.2491L72.5035 28.3155L77.8239 27.8063L78.7012 27.5517L79.5502 27.1839L80.2294 25.8543L79.8332 21.7239L80.0879 21.0449L81.5878 20.2245L83.2858 19.9982L84.2197 20.366L84.7857 20.1962L85.0687 19.2061L85.097 18.5554L85.2102 17.9613L85.5498 17.6501H86.6535L87.1629 17.735L88.0119 17.9896L88.3798 18.4422L88.776 18.81L91.0683 19.3758H93.3606L95.2001 18.3008L96.3887 17.3672L96.9547 18.4422L98.3414 20.0548L99.2187 20.8469L99.9828 21.441L100.69 21.6956L101.483 21.7805H103.237L103.662 21.7239Z" fill="#6D769D" stroke="white" stroke-width="0.8" stroke-linecap="round" stroke-linejoin="round"/>
<path d="M55.6368 53.4096L56.599 53.2398L57.5612 53.6076L57.9574 53.9188L58.4385 54.032L59.6837 53.7208L60.2214 53.6925L60.6459 53.4379L60.844 52.8721L61.2402 52.4477L61.7496 52.4194L62.259 52.674L62.825 52.7023L64.1551 52.5043L64.7211 52.9569L65.0607 53.6642L67.0983 54.5412L68.5133 54.8524L72.0791 54.5978L72.447 54.3997L72.8432 54.2866L74.5978 54.5978L75.4751 54.909L76.5788 55.984L76.4656 57.6248L75.8713 59.4354L76.3241 60.171L77.258 60.5387L79.0692 63.4243L79.2673 67.0738L78.5315 66.6211L77.7108 66.6494L77.3712 66.9323L76.7769 67.6113L76.5222 67.9791L75.9279 68.46L75.1072 68.5449L74.2865 68.7712L70.2113 70.4969L68.6548 70.7798H66.3059L65.6833 70.5535L65.372 69.7048L65.3437 68.7712L65.4852 66.9323L65.1173 66.1402L64.3532 65.6593L63.5042 64.1316L63.1929 62.321L61.8062 61.4723L60.0799 61.444L53.1181 62.8585L49.8919 64.3013L49.524 65.829L50.9956 66.9606L52.6936 67.6679L54.5048 67.9508H54.901L55.2123 68.1488L55.4104 68.5732L55.7217 68.7429L56.3726 68.9409L56.6556 69.6482L56.882 70.6101L56.9386 71.5719L55.8066 73.0147L56.7688 74.2312L57.2782 75.8155L56.6556 76.2964L54.9859 76.7774L53.4011 77.5412L51.7597 77.3149L51.0239 77.5978L50.6277 79.182L50.7409 80.9926L50.6277 81.813L50.7692 82.6052L51.8729 84.0762L52.6087 85.6888L52.0144 87.273L51.3352 87.754L50.5428 88.0369L47.7977 88.6027L46.977 88.8856L46.7223 89.7343V90.6962L46.411 91.3186L44.8262 91.2337L44.2602 90.7245L44.5998 88.9705L44.7413 87.2165L44.2602 86.679L43.6376 86.198L43.2697 85.3776L43.1848 84.4723L43.3263 82.69L44.2319 81.1623L46.9487 79.6064L47.0053 79.182L47.5996 78.5596L47.7694 78.2485L47.826 77.8241L47.7977 76.9188L48.5901 72.647L48.5618 72.0529L47.0336 71.6002L44.1753 69.7048L41.7981 69.0824L39.3643 69.4219L32.9119 69.5916L31.6667 69.4502L29.0348 68.2337L26.9406 66.9323L24.7898 66.6777L24.62 66.8475L24.1672 66.8758L23.6012 66.3099L19.3845 60.3407L19.0449 59.69L18.9883 59.1242L19.6109 57.4834L19.8939 56.3801L21.5353 53.5793L22.0447 53.0418L23.2616 52.3063L23.5446 52.0234L23.7144 51.5141L23.6012 51.0332L23.3182 50.5806L22.7522 49.9865L22.5824 49.845L22.356 49.3641L22.2145 48.0061L22.3277 47.6101L22.5824 47.2423L23.0069 46.8462L23.4031 46.0258L23.2899 45.2054L22.6956 43.4514L22.7239 42.4047L23.3465 39.2361L23.1201 33.2386L23.205 32.984L28.3556 29.0799L29.8838 27.6371L33.6477 21.6962L34.3835 16.4908L34.5816 16.4625L36.3645 16.4059L37.8927 16.6605L38.7134 16.2644L39.5624 16.0664L40.2982 16.6605L41.0057 17.3395L42.4773 18.2165L44.0621 18.8106L44.9111 19.0369L45.7318 19.3198L46.5242 19.8856L47.3732 20.2817L48.2505 20.3665L48.9863 19.9139L49.3542 19.2915L49.7787 18.6974L50.4013 18.4994L50.8258 19.0086L50.7409 19.7724L50.373 20.4797L50.3164 20.9323V21.385L50.2032 21.7528L50.0617 22.0922L49.807 22.9975L49.6655 23.9877L50.4579 25.3456L50.9956 26.845L50.7975 28.599L50.5711 29.476L50.4579 30.4096L51.1654 34.2853L51.0805 36.0959L50.0334 36.6334L48.4203 36.1242L46.7223 36.5486L45.8733 38.048L46.0431 47.2989L45.2507 51.0615L44.2036 53.3247L44.0055 55.6162L44.7696 56.4649L45.8167 56.8327L46.8638 56.182L47.6845 55.1636L52.1559 53.1267L52.637 53.0135L53.1464 53.1267L53.5143 53.3247L54.052 53.155L54.4199 53.3813L54.6746 53.7491L55.184 53.6925L55.6368 53.4096Z" fill="#6D769D" stroke="white" stroke-width="0.8" stroke-linecap="round" stroke-linejoin="round"/>
<path d="M154.545 61.531L152.762 62.2666L152.338 62.3514L151.574 61.9271L149.989 62.6626L147.584 65.1805L146.678 66.5667L146.027 67.2457L145.178 67.6417L143.791 67.7266L143.056 69.226L142.914 71.0366L142.999 73.0452L143.65 74.884L144.725 76.1571L144.895 77.7979L144.244 79.3822L143.169 80.5704L142.659 80.6836L141.697 80.4289L141.244 80.2026L140.197 78.9578L138.301 78.7315L137.028 77.6282L137.509 76.9775L138.499 76.7229L138.839 75.8176L138.471 72.9603L138.924 71.1214L138.471 67.7832L136.065 65.2088L134.283 64.7278L132.641 64.1054L132.047 63.3133L131.283 62.6909L129.641 62.0968L128.877 61.5876L128.396 60.7955L128.509 59.9468L128.934 59.1546L128.962 58.2494L128.141 57.8533L124.83 58.9283L122.057 60.9935L120.444 61.135L118.831 59.7487L118.463 58.5323L118.633 57.3724L119.001 56.2125L119.736 55.3355L120.84 55.0526L122.142 54.3736L123.217 54.119L123.132 53.1854L122.538 51.686L122.312 51.3748L122.227 51.007L122.368 50.5544L122.397 50.1018L122.283 49.3379L121.774 47.782L121.915 42.7463L121.689 40.3982L121.972 39.3232L123.783 38.0501L127.915 36.4941L128.764 35.6737L129.556 33.3539L130.122 32.3355L131.198 31.996H132.358L133.547 34.1177L133.717 34.5421V34.8816L133.801 35.2211L134.226 35.4757L134.509 35.023L134.905 33.8348L135.613 32.7598L136.801 32.1374L138.188 31.8828L139.575 32.0808L141.103 32.4769L141.669 32.7315L141.782 33.3539L141.754 34.2875L141.952 35.1362L142.518 35.5605L143.14 35.9L143.735 36.2961L144.018 36.9751L143.989 37.7955L144.188 38.531L145.518 38.9837L146.989 39.1534L147.98 40.3699L148.008 42.6048L147.867 43.0009L147.64 43.3404L147.442 43.7082L147.753 44.2457L148.234 44.5003L148.772 44.3022L149.763 44.1608L149.932 44.2457L150.102 44.8115L150.131 45.4339H151.602L152.423 44.8681L153.527 44.9812L153.781 45.6885L154.121 47.1313L154.064 47.9517L153.781 48.6872L153.696 49.2813L153.47 49.8471L152.621 51.0919L152.31 52.563L152.678 52.9025L153.696 52.8176L154.347 52.9025L154.602 53.1005L155.14 54.4585L155.479 54.9677L156.13 55.6749L156.668 56.0144L156.979 56.0993L157.489 56.4388L157.29 56.9763L155.196 58.8717L154.828 59.5224L154.602 60.258L154.574 60.5692L154.602 61.2198L154.545 61.531Z" fill="#6D769D" stroke="white" stroke-width="0.8" stroke-linecap="round" stroke-linejoin="round"/>
<path d="M212.814 79.4939L213.126 81.5591L211.371 84.4164L211.314 85.4632L211.824 86.5099L212.56 87.4152L213.437 88.0376L214.456 88.4337L215.333 88.9995L216.918 91.5739L218.588 92.6489L218.333 94.7141L218.474 97.8826L218.106 98.8728L217.229 99.58L212.871 102.211L210.862 103.116L208.711 103.456L200.447 103.795L197.929 103.597L198.098 103.031L197.561 102.352L196.91 100.995L196.514 99.4952L196.344 97.9675L195.665 96.3832L190.797 92.7621L189.806 91.3758L189.948 90.5837L192.636 89.2258L192.693 88.5185L192.608 87.8113L192.665 84.473L192.155 83.0302L190.655 82.0966L188.986 81.3045L188.731 79.4091L187.995 77.7682L185.477 76.6649L185.533 76.0142L186.778 74.2602L187.118 73.3832L187.939 70.5542L188.646 68.7719L189.354 68.1495L191.137 67.612L191.901 67.0179L193.033 65.4619L195.24 64.1889L195.806 63.5665L196.174 63.029L196.655 62.6895L199.938 61.8125L203.164 63.3968L204.664 64.5849L205.966 65.9712L207.098 67.5271L209.56 70.0167L210.069 70.6674L210.211 71.4878L209.928 76.9761L210.069 78.7018L210.296 79.4091L211.937 79.5788L212.814 79.4939Z" fill="#449352" stroke="white" stroke-width="0.8" stroke-linecap="round" stroke-linejoin="round"/>
<path d="M261.068 71.1507L259.681 71.2356L256.257 71.9711L255.493 71.8863L254.729 71.6034L254.474 71.3771L254.134 71.3205L253.342 71.4336L253.144 72.7916V74.4324L252.833 76.1015L251.531 79.3266L250.71 82.5234L249.521 83.1741L247.908 82.8346L246.522 81.9293L245.22 80.7694L243.635 80.0622L241.597 79.7793L239.673 80.2319L238.4 81.7313L237.013 82.9761L236.136 83.0326L235.541 83.4853L235.117 84.334L234.466 85.0695L232.768 85.8334L230.872 86.0314L229.174 86.3992L227.815 87.5591L225.382 90.7276L222.382 92.8494L218.59 92.6513L216.92 91.5763L215.335 89.0019L214.458 88.4361L213.439 88.04L212.562 87.4176L211.826 86.5123L211.316 85.4656L211.373 84.4189L213.128 81.5615L212.816 79.4964L213.75 79.2417L214.458 78.6477L215.024 77.9404L215.278 77.0917L215.109 75.0831L215.448 73.1593L216.778 71.6882L222.325 69.7362L223.797 68.6329L224.504 66.9921L224.391 64.9552L224.504 62.9183L225.014 62.1544L225.665 61.4755L226.627 59.7215L229.004 56.751L228.891 55.874L228.466 55.0253L227.787 54.2331L226.825 53.9219L226.032 54.0351L225.41 53.8371L225.551 52.8752L226.966 50.0745L227.08 48.9994L226.514 46.5948L227.617 38.5037L227.136 34.8826L229.711 32.4213L230.759 30.9785L231.353 29.5074L231.155 28.008L229.881 27.0745L228.834 25.9146L228.41 24.3586L228.976 19.6907L229.627 19.719L230.164 19.8039L230.617 19.9736L230.985 20.0585L231.325 19.8887L231.438 19.6058L231.636 18.3045L231.749 18.2196L232.457 18.0782L232.768 17.5972L232.909 17.0597L232.541 16.9182L232.711 16.5788L232.994 16.1261L233.079 15.7301L233.928 14.9096H234.296L234.636 14.6267L234.692 14.0892L235.371 14.655L235.739 14.7399L235.937 14.5984L236.107 14.0609L236.39 13.9195L236.928 13.8063L237.296 13.4951L237.918 12.7596L238.173 12.2504L238.484 12.6181L238.824 12.5898L238.569 12.024L238.626 11.9392L239.107 11.7411L239.418 11.6845L239.39 11.4299L240.041 10.6944L240.352 10.4398L240.069 10.1003L239.701 9.95884V9.76081L240.352 10.0154L240.579 9.98713L240.664 9.59106L241.343 9.73252L241.994 9.61935L244.088 8.54432L244.71 8.318L245.361 8.28971L245.22 8.65749L245.475 8.77065L245.927 8.74236L246.324 8.6009L246.493 8.77065L246.663 8.37458L246.805 8.28971L247.031 8.318L247.088 8.51603L246.946 8.94039L247.569 8.65749L248.22 8.54432L248.786 8.34629L249.21 7.78049L248.871 7.72391L248.814 7.61074L249.04 7.27126L249.465 7.21468L249.521 7.01665L249.38 6.70546L249.521 6.36597L249.663 6.16794L250.625 5.26265L250.965 5.00804V4.61197L251.163 4.41394L251.87 4.30078L257.7 4.55539L263.077 12.1372L268.482 19.719L271.114 32.5628L271.143 34.4299L271.312 34.9392V35.4201L271.171 36.1556V36.4385L271.397 36.8063L271.709 36.9761L272.077 37.0609L276.916 37.2024L278.416 37.5984L279.067 37.9379L279.123 38.1643L279.01 38.532L279.067 38.7584L279.236 38.9281L279.916 39.4373L280.17 39.5505V39.7485L279.859 39.89L280.312 40.2294L280.793 40.4841L281.161 40.7952L281.331 41.3045L281.444 41.4176L282.293 41.0499L282.576 41.1913L282.717 41.7005L282.265 42.1532L281.953 42.719L281.529 44.4447L281.585 44.6993L281.161 44.9822L281.217 45.4631L281.67 46.4816L281.699 46.9342L281.614 47.7264L281.359 48.4902L280.85 50.9515L280.68 51.3475L279.802 52.5074L279.689 52.7055L279.746 52.9035L279.944 53.2147L280.453 53.243L280.623 53.3561L280.934 53.8371L281.302 54.2331L281.585 54.6292L281.699 55.1101L281.727 55.7325L281.642 56.2135L281.444 56.8076L281.217 57.4016L280.934 57.826L280.51 58.0523L279.293 58.505L278.812 58.7879L277.935 59.58L277.454 59.8629L276.067 60.3155L275.614 60.5702L273.52 62.5222L273.322 62.5788L272.699 62.6636L272.416 62.7768L271.765 63.4558L271.341 63.767L270.831 64.0499L270.322 64.163L269.841 64.1064L268.171 63.3992L267.266 63.1163H266.53L265.624 63.8518L264.747 64.7571L263.954 65.7473L263.388 66.7657L262.992 67.7276L262.709 68.0954L261.804 68.6046L261.436 68.9441L261.181 69.3684L261.068 69.8494L261.238 70.7547L261.068 71.1507Z" fill="#449352" stroke="white" stroke-width="0.8" stroke-linecap="round" stroke-linejoin="round"/>
<path d="M197.929 103.599L200.448 103.797L208.711 103.458L210.89 107.56L211.456 108.097L212.249 108.239L213.041 108.493L214.399 109.71L215.192 111.436L215.645 112.143L215.871 112.878L215.758 113.699V114.548L216.579 115.934L218.078 116.641L219.041 117.857L219.182 119.527L216.833 124.449L216.663 126.09L216.777 126.967L216.55 127.731L214.965 129.032L208.881 136.359L207.353 137.746L206.051 139.273L205.853 140.009L206.872 142.555L207.806 144.252L208.456 144.903L209.221 144.988L209.843 144.45L210.353 143.8L210.834 143.092L211.569 142.753L212.418 143.121L212.984 143.828L215.277 146.006L216.409 148.722V150.335L216.692 151.891L217.286 153.164L217.597 154.38L216.211 155.738L214.739 157.917L214.286 158.369L213.862 158.709L213.664 158.907L213.805 159.048L214.371 159.161L214.682 159.444L215.871 161.142L216.777 162.132L217.06 162.726L216.862 163.263L216.635 163.377L216.211 163.207L215.956 163.179L215.645 163.292L215.362 163.461L214.371 164.367L214.003 164.593L213.918 165.017L213.777 165.215L212.984 165.357L212.73 165.329L212.532 165.47L212.362 165.894L211.003 166.771L209.56 168.101L209.136 168.695L208.994 169.346L209.136 169.685L209.673 170.279L209.787 170.704L209.73 171.354L209.56 171.977L208.881 173.561L208.315 174.353L207.692 174.721L206.758 174.806L206.136 175.315L205.796 176.107L205.626 177.097L205.485 177.635L205.032 178.059L204.438 178.37L203.844 178.512L203.589 178.484L202.825 178.342L202.485 178.625L202.174 178.653L201.778 178.427L199.627 178.653L199.004 178.568L198.608 178.229L198.155 177.097L197.759 175.258L197.674 174.325L197.731 173.391L197.646 172.26L197.193 171.298L196.401 170.675L194.193 170.279L193.429 169.516L192.976 168.469L192.75 167.394L192.382 166.46L191.59 165.923L189.665 165.187L188.024 164.31L187.401 164.112L186.977 163.773L186.835 162.613L186.411 162.047L186.071 162.726L185.788 163.575L185.59 164.48L185.449 166.29L185.052 166.517L184.571 167.224L184.486 167.592L184.458 168.129L178.402 168.214L177.751 168.016L177.27 167.648L177.015 167.167L176.676 165.442L176.477 165.046L176.138 164.961L175.6 165.3L169.827 170.195L169.289 170.421L168.836 170.279L168.355 170.053L167.818 170.025L167.365 170.534L165.554 176.277L165.271 176.503H164.422L164.988 174.212L165.271 170.223L165.186 168.723L165.95 164.593L166.657 163.207L167.62 162.019L168.808 161.17L169.827 160.208L169.997 157.407L170.931 154.55L169.884 151.806L167.478 149.656L165.356 146.996L162.695 145.158L159.101 144.733L155.479 144.846L154.545 145.016L152.96 145.752L152.224 145.893L151.941 145.384L153.243 143.432L154.036 142.753L157.46 140.461L157.941 140.037L157.856 139.386L157.686 138.962L157.743 138.538L157.658 137.321L156.413 135.737L156.498 135.001L156.752 134.379L157.149 133.87L157.715 133.615L158.875 134.011L159.441 134.294L160.092 134.407L160.799 134.634L161.478 134.719L162.129 134.69L163.092 134.068L163.742 133.049L165.016 133.134L166.799 132.993L168.497 132.512L170.025 131.352L171.383 129.966L172.94 128.834L174.61 127.929L175.261 127.335L176.506 125.835L177.043 124.987L178.175 123.629L183.609 122.299L187.345 120.432L188.165 118.904L188.137 117.999L187.826 116.528L187.996 115.764V115.085L187.316 112.822L186.92 112.171L186.722 111.464L186.467 109.682L186.637 108.154L186.496 106.881L185.986 105.749L187.231 104.929L190.231 104.844L193.118 103.458L194.674 103.203L196.316 103.599H197.929Z" fill="#449352" stroke="white" stroke-width="0.8" stroke-linecap="round" stroke-linejoin="round"/>
<path d="M196.656 62.6918L196.175 63.0313L195.807 63.5688L195.241 64.1912L193.034 65.4642L191.902 67.0202L191.138 67.6143L189.355 68.1518L188.647 68.7742L187.94 70.5565L187.119 73.3855L186.779 74.2625L185.534 76.0165L185.478 76.6672L187.996 77.7705L188.732 79.4113L188.987 81.3068L190.657 82.0989L192.156 83.0325L192.666 84.4753L192.609 87.8135L192.694 88.5208L192.638 89.2281L189.949 90.586L189.808 91.3781L190.798 92.7644L195.666 96.3855L196.345 97.9698L196.515 99.4974L196.911 100.997L197.562 102.355L198.099 103.034L197.93 103.6H196.317L194.675 103.203L193.119 103.458L190.232 104.844L187.232 104.929L185.987 105.75L185.251 105.438L181.318 102.977L169.771 97.602L169.035 97.7717L168.696 97.9981L168.384 98.5356L169.318 99.8369L169.63 100.686L169.403 101.478L167.847 102.072L167.252 102.581L166.545 104.052L165.724 104.392L164.79 104.59L161.083 104.788L157.744 104.165L156.3 103.684L155.48 102.27L154.433 101.025L153.584 100.771L153.018 100.176L153.131 99.4409L153.442 98.7619L153.838 98.1112L154.036 97.404L153.923 95.4519L153.414 93.8111L151.914 93.2736L149.197 93.7545L148.32 93.1604L148.348 89.3412L148.235 88.153L147.754 86.8517L146.933 85.8049L145.546 85.4372L144.188 85.6918L143.679 85.0977L143.141 84.5885L142.433 84.1924L142.094 83.57L142.914 82.1272L143.169 80.5712L144.245 79.383L144.895 77.7988L144.726 76.158L143.65 74.8849L142.999 73.046L142.914 71.0374L143.056 69.2268L143.792 67.7275L145.178 67.6426L146.027 67.2465L146.678 66.5676L147.584 65.1813L149.989 62.6635L151.574 61.9279L152.338 62.3523L152.763 62.2674L154.546 61.5319L155.989 61.5602L157.376 61.9562L158.847 62.5786L160.347 62.6635L161.819 62.4372L162.753 63.6254L163.941 64.0497L166.969 63.8234L168.328 63.4839L169.347 64.4458L169.884 65.8886V67.4445L169.686 68.9722L170.224 70.3019L171.582 70.8677L175.29 70.5848L176.11 71.0091L177.016 71.3486L177.667 70.9525L177.384 70.0755L177.893 68.463L180.497 67.4445L181.289 66.9353L181.855 66.2846L181.968 65.4925L180.27 64.9267L178.261 64.8418L174.526 64.1346L172.799 63.4556L170.535 60.4286L169.573 58.7029L169.149 58.8443H168.384L167.932 58.1936L168.017 57.4015L168.809 55.9304L168.781 55.11L168.413 53.3843L168.045 52.5922L167.252 52.3941L166.403 52.5073L164.96 52.9033L163.97 52.2244L164.451 50.4421L165.724 49.3105L167.705 49.1407L168.498 48.773L169.262 48.2637L176.45 45.5196L176.818 44.6992L176.62 43.709L176.761 42.9169L178.459 38.1358L178.686 37.0608L179.025 36.014L179.563 35.5048L180.299 35.2219L182.053 34.9107L182.789 35.3917L184.034 35.7029L187.147 33.6094L188.732 34.7127L190.091 36.0423L190.402 36.9476L190.77 38.8431L190.798 39.8049L190.911 40.6537L191.392 41.4175L191.873 42.3511L192.015 43.3978L192.043 45.0669L192.751 48.9144L195.581 55.9304L195.722 57.9673L194.902 61.7016L195.524 62.4937L196.656 62.6918Z" fill="#449352" stroke="white" stroke-width="0.8" stroke-linecap="round" stroke-linejoin="round"/>
<path d="M228.975 19.6914L228.409 24.3593L228.834 25.9153L229.881 27.0752L231.154 28.0088L231.352 29.5081L230.758 30.9792L229.711 32.422L227.136 34.8833L227.617 38.5045L226.513 46.5955L227.079 49.0001L226.966 50.0752L225.551 52.8759L225.409 53.8378L226.032 54.0358L226.824 53.9227L227.787 54.2338L228.466 55.026L228.89 55.8747L229.004 56.7517L226.626 59.7222L225.664 61.4762L225.013 62.1551L224.504 62.919L224.391 64.9559L224.504 66.9928L223.796 68.6336L222.325 69.7369L216.778 71.6889L215.448 73.16L215.108 75.0838L215.278 77.0924L215.023 77.9411L214.457 78.6484L213.75 79.2425L212.816 79.4971L211.939 79.5819L210.297 79.4122L210.071 78.7049L209.929 76.9792L210.212 71.4909L210.071 70.6705L209.561 70.0198L207.099 67.5303L205.967 65.9743L204.666 64.5881L203.166 63.3999L199.939 61.8156L196.657 62.6926L195.525 62.4946L194.902 61.7025L195.723 57.9682L195.581 55.9313L192.751 48.9153L192.044 45.0678L192.015 43.3987L191.874 42.3519L191.393 41.4183L190.912 40.6545L190.799 39.8058L190.77 38.8439L190.402 36.9485L190.091 36.0432L188.733 34.7136L187.148 33.6102L186.638 32.0543L186.214 28.6311L185.478 27.0752L184.827 26.5942L184.035 26.6225L183.158 26.4245L182.309 26.0284L181.544 25.9436L179.988 26.3962L178.969 26.2548L178.743 25.6324L178.12 23.2277L177.526 22.2941L176.535 21.9829L175.488 22.2658L173.253 23.1711L172.121 23.454L170.479 24.1613L170.055 24.4725L169.8 25.1231L169.432 25.7172L167.366 26.6225L165.13 25.8587L164.508 25.689L168.526 20.9079L169.319 20.1441L169.772 19.8329L170.253 19.748L170.536 19.3236L170.621 18.7295L170.734 18.4749L171.13 18.0789L175.601 15.561L176.592 15.1367L188.676 12.534L190.94 12.3359L195.213 12.8452L206.675 12.7886L213.806 14.5992L216.41 15.6742L219.665 17.6828L220.768 18.5315L221.221 18.7861L222.608 19.1256L223.711 18.9842L224.221 18.6447L224.617 18.5598L225.806 18.9842L226.06 19.1256L226.202 19.5217L226.4 19.55L226.74 19.2671L226.966 19.2388L227.192 19.3519L227.532 19.6914L227.758 19.55L228.155 19.6631L228.975 19.6914Z" fill="#449352" stroke="white" stroke-width="0.8" stroke-linecap="round" stroke-linejoin="round"/>
<path d="M217.598 154.382L217.287 153.166L216.692 151.893L216.409 150.337V148.724L215.277 146.008L212.985 143.83L212.419 143.123L211.57 142.755L210.834 143.095L210.353 143.802L209.844 144.452L209.221 144.99L208.457 144.905L207.806 144.254L206.872 142.557L205.854 140.011L206.052 139.275L207.353 137.748L208.882 136.361L214.966 129.034L216.551 127.733L216.777 126.969L216.664 126.092L216.834 124.451L219.183 119.529L219.041 117.86L218.079 116.643L216.579 115.936L215.759 114.55V113.701L215.872 112.881L215.645 112.145L215.193 111.438L214.4 109.712L213.042 108.496L212.249 108.241L211.457 108.099L210.891 107.562L208.712 103.46L210.863 103.12L212.872 102.215L217.23 99.5841L218.107 98.8768L218.475 97.8867L218.334 94.7181L218.589 92.653L222.381 92.851L225.381 90.7292L227.814 87.5607L229.173 86.4008L230.871 86.033L232.767 85.835L234.465 85.0712L235.116 84.3356L235.54 83.4869L236.135 83.0343L237.012 82.9777L238.399 81.7329L239.672 80.2335L241.596 79.7809L243.634 80.0638L245.219 80.771L246.521 81.9309L247.907 82.8362L249.52 83.1757L250.709 82.525L251.53 79.3282L252.832 76.1031L253.143 74.434V72.7932L253.341 71.4352L254.133 71.3221L254.473 71.3787L254.728 71.605L255.492 71.8879L256.256 71.9728L259.68 71.2372L261.067 71.1523L260.925 71.4352L256.737 77.4611L256.086 78.8473L255.209 81.8461L254.416 86.3442L253.879 87.8436V88.1548L254.02 88.6357L254.077 88.9186L254.02 89.2298L253.652 90.0502L253.369 90.3897L252.86 90.7858L252.322 91.1253L251.869 91.295L250.03 91.5213L249.237 91.8043L248.813 92.6247L248.841 93.1056L249.124 93.8977L249.209 94.3504L249.096 94.9162L248.558 95.7932L248.388 96.2741L248.417 96.8116L248.643 97.2077L249.351 97.915L249.605 98.4525L249.549 98.8202L249.322 99.2163L249.096 99.8104L248.785 101.423L248.671 102.951L248.021 104.648L246.464 105.27L244.625 105.553L242.983 106.261L242.672 106.515L241.993 107.392L241.54 107.788L240.153 108.467L240.012 108.58L239.842 109.005L239.955 109.09L240.606 109.174L240.861 109.684L241.03 110.391L241.002 111.325L240.917 111.777L240.776 112.173L239.7 114.154L239.219 115.285L239.191 116.247L239.361 117.124L238.823 121.594L238.568 122.641L238.059 123.32L237.748 123.461L236.814 123.405L236.559 123.518L236.389 123.801L236.163 124.48L235.823 125.243L235.399 125.696L232.993 126.997L232.625 127.082L232.286 126.997L231.522 126.658L231.239 126.573L230.786 126.63L230.22 126.969L229.852 127.139L229.541 127.167L229.201 127.111L228.55 126.884L228.748 127.252L229.286 128.582L229.371 128.921V129.6L229.173 129.798L228.465 130.307L227.956 131.099L227.673 131.297L227.163 131.382L226.258 131.213L225.748 131.439L225.211 132.203L225.041 133.25L225.098 134.325L225.465 136.248L225.437 136.729L225.267 137.238L224.305 138.596L224.164 139.19V140.096L224.305 141.029L224.447 141.595L224.532 141.991L224.39 142.331L223.513 143.264L221.164 146.546L220.315 148.074L220.145 148.583L220.088 149.092L220.117 149.601L220.456 150.988L220.371 151.468L220.06 151.751L219.692 152.006L219.07 152.94L217.598 154.382Z" fill="#449352" stroke="white" stroke-width="0.8" stroke-linecap="round" stroke-linejoin="round"/>
<path d="M153.245 143.432L151.943 145.384L152.226 145.893L152.962 145.752L154.547 145.016L155.481 144.846L159.103 144.733L162.697 145.158L165.358 146.997L167.48 149.656L169.886 151.806L170.933 154.55L169.999 157.407L169.829 160.208L168.81 161.17L167.622 162.019L166.659 163.207L165.952 164.593L165.188 168.723L165.273 170.223L164.99 174.212L164.424 176.503H164.141L163.433 176.645L163.094 176.956L162.556 178.003L162.16 178.37L161.679 178.597L160.745 178.965L160.292 178.201L159.613 176.956L156.811 173.646L154.717 172.571L151.009 173.278L149.679 173.307L149.028 173.165L148.576 172.769L148.802 171.354L148.236 170.138L145.406 168.469L143.708 167.875L142.095 167.733L140.567 168.299L140.255 169.063L140.482 169.968L140.086 170.647L139.293 171.072L138.303 171.326L137.256 171.354L136.322 171.185H135.388L134.709 171.694L134.058 172.401L133.35 172.769L132.586 172.854L132.048 172.231L131.737 171.439L131.567 170.534L131.313 170.138L130.832 170.11L130.718 170.364L130.464 170.732H129.926L129.388 170.845L128.511 172.005L127.605 172.231H126.671L125.681 172.373L125.313 173.165L125.087 175.145L124.04 176.56L122.426 175.57L121.662 173.929L122.455 171.722V170.562L122.2 169.431L121.606 168.469L120.644 167.988L119.795 168.214L119.087 168.752L118.153 168.865L117.248 168.441L116.37 167.79L115.578 167.054L114.927 166.234L114.021 164.338L113.795 163.377L114.701 163.829L115.691 164.65L116.455 165.017L117.078 164.819L117.163 163.744L117.531 162.811L120.672 161.085L121.634 159.473L122.059 157.549L122.115 156.785L122.398 156.106L122.879 155.286L122.285 154.861L121.379 154.974L120.615 154.578L120.332 153.645L119.964 150.787L120.021 148.043L119.936 147.195L119.455 146.346L118.776 145.639L118.068 144.62L117.785 143.404L117.729 142.159L117.842 140.801L119.03 141.084L120.559 141.254L121.691 141.65L122.483 141.819L124.153 142.017L124.973 142.244L126.134 142.951L126.53 143.092L128.511 143.432L129.162 143.687L130.435 144.337L131.171 144.564L131.935 144.648L132.614 144.846L133.152 145.412L134.228 146.035L134.822 146.487L135.105 146.629L135.558 146.742L135.869 146.374L135.699 145.525L134.595 143.092L134.058 141.367L134.426 139.698L135.756 138.594L138.84 138.227L143.595 139.811L145.321 140.207L147.896 140.292L148.745 140.207V140.094L153.245 143.432Z" fill="#A163BE" stroke="white" stroke-width="0.8" stroke-linecap="round" stroke-linejoin="round"/>
<path d="M83.7115 124.022L82.721 125.323L81.7588 128.605L81.3909 131.066L81.1645 131.773L80.6834 132.339L79.891 132.509L77.2874 131.915L74.0329 131.745L71.7123 131.207L69.3634 130.33L68.1748 129.142L67.2409 128.774L66.1938 129.736L63.5053 133.103L63.3072 133.895L64.0147 135.253L64.3543 135.677L64.7788 136.017L65.0052 136.469L65.9674 137.346L67.5239 138.308L67.722 139.751L65.175 139.836L64.3543 140.09L63.8449 140.685L63.7034 141.448L63.4204 142.014H63.0242L62.0337 142.184L61.4394 142.043L60.5055 141.986L58.949 140.996L57.4774 141.448L56.9963 141.25L56.8831 140.826L56.6001 140.656L56.2605 140.6L54.9021 140.769L54.1946 140.317L53.7135 139.496L52.723 139.468L51.7891 139.836L50.2609 139.977L49.61 140.119L49.0157 140.373L47.6856 140.656L46.1574 140.515L44.6292 140.6L44.233 140.345L43.8368 140.26L43.5538 139.779L42.8746 137.516L42.0256 136.13L41.403 135.734L40.8653 135.253L40.0163 134.008L39.1956 130.811L38.3749 129.538L36.2807 124.899L35.9694 123.456L36.2807 122.013L36.7901 121.504L37.1863 120.881L37.7523 120.287L38.5447 119.835L39.3371 118.675L38.9409 117.769L37.7806 118.477H37.1297L35.4034 118.081L32.63 117.09L31.5829 116.553L30.6773 115.761L30.1396 114.714L29.4604 113.837L28.385 113.356L27.253 113.469L26.2059 114.233L25.6116 115.393L25.3852 116.949L24.9324 117.458L24.3947 117.854L19.5554 120.287L18.5366 121.051L17.5744 121.532L16.5273 122.324L13.7539 123.597L13.4426 123.654L13.1879 123.371L12.9049 123.229L12.7351 122.975L12.3389 122.89L11.971 122.918L11.4333 123.088L10.9239 123.399L9.9617 124.248L9.4806 124.531L9.1127 124.842L8.9429 125.068L8.4052 125.295L7.1034 126.341L6.6789 126.879L6.1129 127.247L4.2451 127.671L3.3395 127.643L1.9528 128.831L1.5 123.003V122.749L1.6415 122.579L2.0377 122.409L2.1792 122.07L2.0377 121.475L2.1226 121.108L2.4056 120.429L2.4339 120.061L2.3207 119.891L2.1226 119.806V119.58L2.4622 119.014L2.6037 118.364L2.6603 116.864L2.5754 116.213L4.3866 116.383L4.6979 116.327L5.1224 115.959L5.3771 115.789L5.6318 115.733L6.3676 115.704L6.6223 115.733L7.3298 116.129H7.6128L9.2259 115.733L9.7919 115.308L10.1598 114.573L10.9522 112.111L11.4333 111.206L11.5748 110.697V109.141L11.4899 108.745L11.2069 108.009L11.0371 107.33L11.122 106.68L11.5748 105.944L11.7446 105.803L12.1408 105.69L12.3106 105.52L13.7539 103.624L13.7822 103.511L13.6124 103.059L13.7822 102.464L14.1784 102.351L14.6312 102.436L15.0557 102.464L15.8198 102.012L15.9896 101.389L15.7915 100.682L15.5085 99.9466L15.4236 99.4656L15.4802 98.9281L15.6783 98.4472L16.0745 98.1643L17.7442 97.457L18.6781 97.2307L20.0931 97.3722L20.5176 96.9761L21.1119 95.8445L21.876 94.9392L22.1307 94.4583L22.2722 92.4214L22.4137 92.0253L22.7816 91.6858L23.1212 91.5161L23.4325 91.2898L23.6589 90.6391L25.838 90.2147L29.6019 90.1016L31.215 90.3279L31.8942 90.8937L39.7899 100.286L40.1578 100.569L40.5257 100.795H41.3464L41.7143 102.408L41.4879 104.332L41.4596 106.114L42.2237 107.444L43.95 107.217L46.0159 107.528L46.0442 107.67L46.1857 109.452L46.2706 109.848L46.4687 110.159L46.8083 110.442L47.2045 110.584L48.3648 110.782L49.044 111.036L49.327 111.517L49.3553 112.14L49.2138 112.847L49.2704 113.582L49.6949 114.035L50.3458 114.261L51.0816 114.205L52.0155 113.922L53.0626 113.3L54.5908 112.819H54.9304L55.2417 112.904L55.8077 113.158L55.836 113.3L56.2605 113.498L57.0529 114.035L58.2698 114.629L58.6377 114.884L59.0339 115.421L59.4301 115.846L59.5433 116.1L59.5716 116.864L59.7414 117.175L60.0244 117.373L60.364 117.487L62.5997 117.854L64.1845 117.769L64.5241 117.826L65.0618 118.194L65.4863 118.618L65.7693 118.844L66.3919 119.043L67.0994 119.099L67.7503 119.269L68.2031 119.552L68.5144 119.976L69.0238 120.4L69.42 120.881L69.703 121.419L70.0143 121.674L70.3822 121.787L71.7406 121.815L72.6462 122.098L72.9575 122.579L73.2971 123.06L73.5518 123.484L73.6933 123.654L73.9763 123.739L75.2215 123.71L76.2686 123.88H76.6082L76.8912 123.824L77.6553 123.484L78.2213 123.371L80.7966 123.343L81.1645 123.399L81.5041 123.541L82.2399 124.22L82.4097 124.276L83.7115 124.022Z" fill="#A163BE" stroke="white" stroke-width="0.8" stroke-linecap="round" stroke-linejoin="round"/>
<path d="M79.2691 67.0751L80.2596 68.4047L82.0708 71.4601L82.4387 73.0443L81.9576 73.2707L81.5048 73.8082L81.3067 74.4023L81.1652 76.4109L81.1935 77.005L81.5897 78.2215L81.618 78.7873L81.5048 79.3248L81.1652 80.1452L81.1086 80.4281L81.052 81.39L80.9105 81.6729L80.8256 82.1538L80.9671 82.9742L81.7312 83.54L82.3255 84.2473L82.7217 85.0677L83.5424 84.9545L84.1367 84.2756L84.6461 83.4834L85.863 82.1538L88.6647 79.9755L90.3344 79.6077L90.957 80.032L91.2683 80.7676L92.0041 80.909L93.7304 80.1169L94.6077 79.9472L95.5133 80.0886L96.051 79.7208L95.9378 78.759L96.7019 78.4478L97.5509 78.5044L98.2867 78.7873L98.4848 79.2682L98.6263 81.1919L99.0225 81.3051L99.8432 81.0505L101.145 82.1538L101.173 84.0775L100.862 84.9263L101.371 85.4638L103.041 86.0861L103.749 86.5671L103.692 87.3875L103.126 88.1231L102.362 88.6323L101.598 89.2547L100.975 90.0185L100.183 90.5277L99.6168 91.1784L100.692 92.5646L102.362 93.3002L104.116 93.4982L107.597 93.4416L108.729 94.2338L109.182 98.0529L109.154 98.9299L108.531 99.4392L107.795 99.4957L107.286 99.8918L107.767 100.542L108.616 100.797L109.126 101.221L108.927 101.872L109.267 102.466L109.975 102.834L110.116 103.598L109.578 104.192L109.239 104.503L109.012 104.899L108.927 105.38L108.786 105.833L107.512 106.766L107.314 107.643L107.795 108.379L108.107 108.577L108.503 109.086L108.446 109.426L108.192 110.161L108.333 110.529L108.927 110.359L109.493 110.501L106.182 115.225L106.041 115.253L104.909 114.631L102.73 112.481L101.315 112.057L96.9566 112.226L96.3906 112.481L96.2774 113.16L96.5038 130.162L96.6453 130.587L97.2113 131.605L98.2867 131.718L97.9754 132.652L97.2679 133.331L96.7868 133.501L96.4189 133.868L96.4755 134.406L96.3623 134.802L96.0227 134.604L95.7397 134.83L95.4567 135.424L95.3152 136.047L94.919 136.471L94.8341 136.33L94.4945 136.018L94.4662 135.877L94.1832 135.736L93.3059 134.774L92.372 133.303L92.089 132.991L89.7684 131.209L89.5986 131.124L89.0609 130.021L88.7496 128.889L88.693 128.182L88.5515 127.758L88.3534 127.56L87.9855 126.796L87.9289 126.173L87.3629 125.183L87.0516 124.872L86.6837 124.674L86.2026 124.589L85.3253 123.995L85.1555 123.854L84.7593 123.825L83.7122 124.023L82.4104 124.278L82.2406 124.221L81.5048 123.542L81.1652 123.401L80.7973 123.344L78.222 123.373L77.656 123.486L76.8919 123.825L76.6089 123.882H76.2693L75.2222 123.712L73.977 123.741L73.694 123.656L73.5525 123.486L73.2978 123.062L72.9582 122.581L72.6469 122.1L71.7413 121.817L70.3829 121.788L70.015 121.675L69.7037 121.421L69.4207 120.883L69.0245 120.402L68.5151 119.978L68.2038 119.554L67.751 119.271L67.1001 119.101L66.3926 119.044L65.77 118.846L65.487 118.62L65.0625 118.196L64.5248 117.828L64.1852 117.771L62.6004 117.856L60.3647 117.488L60.0251 117.375L59.7421 117.177L59.5723 116.866L59.544 116.102L59.4308 115.848L59.0346 115.423L58.6384 114.886L58.2705 114.631L57.0536 114.037L56.2612 113.499L55.8367 113.301L55.8084 113.16L55.2424 112.905L54.9311 112.82H54.5915L53.0633 113.301L52.0162 113.924L51.0823 114.207L50.3465 114.263L49.6956 114.037L49.2711 113.584L49.2145 112.849L49.356 112.141L49.3277 111.519L49.0447 111.038L48.3655 110.784L47.2052 110.586L46.809 110.444L46.4694 110.161L46.2713 109.85L46.1864 109.454L46.0449 107.672L46.0166 107.53L43.9507 107.219L42.2244 107.445L41.4603 106.116L41.4886 104.333L41.715 102.41L41.3471 100.797H40.5264L40.1585 100.571L39.7906 100.288L31.8949 90.8955L31.2157 90.3297L29.6026 90.1034L25.8387 90.2165L23.6596 90.6409L23.7162 90.1882L23.6596 89.8205L23.4332 89.5376L21.8484 87.8684L21.5088 87.3309L21.4805 86.8783L21.9616 85.775L22.5559 84.8697L22.6691 84.5868V84.1058L22.8955 83.7381L23.3483 83.2854L23.8294 83.1157L24.3105 83.2288L25.8387 84.021L26.2066 83.9644L26.5462 83.5117L26.716 83.0591L26.7443 81.8143L26.9424 81.1919L27.5367 80.0037L27.7348 79.3531L27.7065 78.0234L27.5933 77.3445L27.3952 76.8635L27.0839 76.6938L26.4613 76.5523L26.2349 76.2694L26.0085 75.4773L25.8953 75.2227L25.3293 74.6569L25.1878 74.374L25.2161 73.9496L25.7255 72.6766L25.7538 71.9693L25.2727 69.8475L25.0463 69.4232L24.8765 68.9988L24.7633 68.5179V67.9804L25.018 67.0468L24.8199 66.877L24.6218 66.8488L24.7916 66.679L26.9424 66.9336L29.0366 68.235L31.6685 69.4515L32.9137 69.5929L39.3661 69.4232L41.7999 69.0837L44.1771 69.7061L47.0354 71.6015L48.5636 72.0542L48.5919 72.6483L47.7995 76.9201L47.8278 77.8254L47.7712 78.2497L47.6014 78.5609L47.0071 79.1833L46.9505 79.6077L44.2337 81.1636L43.3281 82.6913L43.1866 84.4736L43.2715 85.3789L43.6394 86.1993L44.262 86.6802L44.7431 87.2178L44.6016 88.9718L44.262 90.7258L44.828 91.235L46.4128 91.3198L46.7241 90.6975V89.7356L46.9788 88.8869L47.7995 88.604L50.5446 88.0382L51.337 87.7553L52.0162 87.2743L52.6105 85.6901L51.8747 84.0775L50.771 82.6064L50.6295 81.8143L50.7427 80.9939L50.6295 79.1833L51.0257 77.5991L51.7615 77.3162L53.4029 77.5425L54.9877 76.7786L56.6574 76.2977L57.28 75.8168L56.7706 74.2325L55.8084 73.016L56.9404 71.5732L56.8838 70.6114L56.6574 69.6495L56.3744 68.9422L55.7235 68.7442L55.4122 68.5745L55.2141 68.1501L54.9028 67.9521H54.5066L52.6954 67.6692L50.9974 66.9619L49.5258 65.8303L49.8937 64.3026L53.1199 62.8598L60.0817 61.4453L61.808 61.4736L63.1947 62.3223L63.506 64.1329L64.355 65.6606L65.1191 66.1415L65.487 66.9336L65.3455 68.7725L65.3738 69.7061L65.6851 70.5548L66.3077 70.7811H68.6566L70.2131 70.4982L74.2883 68.7725L75.109 68.5462L75.9297 68.4613L76.524 67.9804L76.7787 67.6126L77.373 66.9336L77.7126 66.6507L78.5333 66.6224L79.2691 67.0751Z" fill="#A163BE" stroke="white" stroke-width="0.8" stroke-linecap="round" stroke-linejoin="round"/>
<path d="M98.2854 131.717L99.7287 131.661L100.606 131.774L101.653 131.604L101.455 132.424L100.861 133.952L101.993 135.961L102.106 137.517L101.738 141.025L101.455 141.76L101.031 142.439L100.748 143.401L100.719 144.391L100.917 144.448L101.483 144.193L102.276 143.684L102.927 143.062L104.144 142.354L108.898 140.742L109.69 140.657L113.822 140.996L117.162 140.685L117.841 140.798L117.728 142.156L117.784 143.401L118.067 144.618L118.775 145.636L119.454 146.343L119.935 147.192L120.02 148.041L119.963 150.785L120.331 153.642L120.614 154.576L121.378 154.972L122.284 154.859L122.878 155.283L122.397 156.103L122.114 156.782L122.057 157.546L121.633 159.47L120.671 161.083L117.529 162.808L117.162 163.742L117.077 164.817L116.454 165.015L115.69 164.647L114.699 163.827L113.794 163.374L113.001 162.667L111.869 162.582L110.992 163.035L110.256 163.629L109.521 163.883L109.068 164.279L107.738 166.062L106.549 167.137L104.596 168.523L103.691 169.598L102.672 170.418L102.078 170.135L101.71 169.598L101.54 169.456L101.37 168.693L100.578 169.202L99.9551 170.475L98.3703 171.974L97.8043 173.106L97.2949 175.426L96.5025 176.19L95.9082 176.303L95.2856 176.161L94.7762 176.133L94.5498 176.19L94.5215 175.482L94.0404 174.153L93.9555 173.134L94.0404 170.107L93.8989 168.862L93.9272 168.466L94.1819 167.533L94.8045 166.203L94.8611 166.005L94.8328 164.958L94.8611 164.704L95.0592 164.166L95.1724 162.921L95.4554 162.044L95.5686 161.62L95.4554 160.941L95.0875 160.121L95.0309 159.923L94.4083 159.725L94.097 159.555L94.0404 159.13L93.7857 158.819L93.4178 158.536L92.7952 158.593L91.833 158.989L90.6727 159.215L90.3614 158.763L90.2482 158.31L89.9369 157.886L89.3992 156.556L88.8049 156.019L88.3238 155.962L87.4465 156.188L86.8805 156.16L86.2296 155.396L85.4372 154.859L85.0976 154.576L84.8429 154.151L84.3901 154.265L83.909 154.547L82.8336 155L81.7582 155.028L81.1639 154.208L81.4186 153.161L81.2488 152.624L80.4847 152.369L80.5696 151.916L80.1734 151.662L79.6923 151.747L79.2961 151.549L77.8245 149.936L76.6359 148.097L76.8057 147.164L76.0982 146.852L74.2021 147.192L73.1267 146.881L71.2872 145.976L70.891 145.636L70.5797 145.664L69.7873 144.957L69.4477 143.939L69.6175 142.92L70.2967 142.071L70.8344 141.76L70.8627 141.223L70.5231 140.968L70.0703 140.912L69.2213 140.996L68.3723 141.194L67.7214 141.591L67.2686 141.421L67.2403 140.402L67.7214 139.752L67.5233 138.309L65.9668 137.347L65.0046 136.47L64.7782 136.017L64.3537 135.678L64.0141 135.253L63.3066 133.896L63.5047 133.103L66.1932 129.737L67.2403 128.775L68.1742 129.143L69.3628 130.331L71.7117 131.208L74.0323 131.745L77.2868 131.915L79.8904 132.509L80.6828 132.34L81.1639 131.774L81.3903 131.067L81.7582 128.605L82.7204 125.324L83.7109 124.022L84.758 123.824L85.1542 123.853L85.324 123.994L86.2013 124.588L86.6824 124.673L87.0503 124.871L87.3616 125.182L87.9276 126.172L87.9842 126.795L88.3521 127.559L88.5502 127.757L88.6917 128.181L88.7483 128.888L89.0596 130.02L89.5973 131.123L89.7671 131.208L92.0877 132.99L92.3707 133.301L93.3046 134.773L94.1819 135.734L94.4649 135.876L94.4932 136.017L94.8328 136.329L94.9177 136.47L95.3139 136.046L95.4554 135.423L95.7384 134.829L96.0214 134.603L96.361 134.801L96.4742 134.405L96.4176 133.867L96.7855 133.499L97.2666 133.33L97.9741 132.651L98.2854 131.717Z" fill="#A163BE" stroke="white" stroke-width="0.8" stroke-linecap="round" stroke-linejoin="round"/>
<path d="M185.989 105.746L186.498 106.878L186.64 108.151L186.47 109.678L186.724 111.461L186.923 112.168L187.319 112.819L187.998 115.082V115.761L187.828 116.525L188.139 117.996L188.168 118.901L187.347 120.429L183.611 122.296L178.178 123.625L177.046 124.983L176.508 125.832L175.263 127.332L174.612 127.926L172.942 128.831L171.386 129.963L170.027 131.349L168.499 132.509L166.801 132.99L165.018 133.131L163.745 133.046L162.868 131.801L161.594 130.981L158.849 129.821L157.377 129.764L155.877 130.217L153.727 130.613L151.519 130.585L150.076 130.189L148.123 129.142L147.586 128.18L147.727 127.02L147.557 126.03L146.991 125.238L146.538 124.078L146.935 123.088L147.529 122.352L148.095 121.504L148.972 121.221L149.51 120.683L150.5 119.354L150.84 118.505L150.982 117.826L150.557 117.288L149.906 116.864L149.17 117.062L148.802 117.232L148.406 117.288L146.793 117.317L145.237 117.006L144.133 115.846L143.765 114.233L142.605 113.384L141.246 112.705L141.727 111.347L141.841 109.876L140.935 108.603L139.831 107.443L138.869 106.029V102.634L139.548 102.125L139.605 101.701V101.304L140.567 99.9465L140.369 99.1544L140.511 98.2208V96.3819L141.444 93.2417L140.822 91.4311L141.246 89.6488L142.435 88.3192L143.284 87.9231L143.85 87.1593L143.963 86.3672L144.19 85.6882L145.548 85.4336L146.935 85.8014L147.755 86.8481L148.236 88.1495L148.35 89.3376L148.321 93.1568L149.199 93.7509L151.915 93.27L153.415 93.8075L153.925 95.4484L154.038 97.4004L153.84 98.1076L153.444 98.7583L153.132 99.4373L153.019 100.173L153.585 100.767L154.434 101.022L155.481 102.266L156.302 103.681L157.745 104.162L161.085 104.784L164.792 104.586L165.726 104.388L166.547 104.049L167.254 102.578L167.848 102.068L169.405 101.474L169.631 100.682L169.32 99.8333L168.386 98.532L168.697 97.9945L169.037 97.7682L169.773 97.5984L181.319 102.974L185.253 105.435L185.989 105.746Z" fill="#A163BE" stroke="white" stroke-width="0.8" stroke-linecap="round" stroke-linejoin="round"/>
<path d="M141.246 112.706L142.605 113.385L143.765 114.234L144.133 115.847L145.237 117.007L146.793 117.318L148.406 117.289L148.802 117.233L149.17 117.063L149.906 116.865L150.557 117.289L150.982 117.827L150.84 118.506L150.5 119.355L149.51 120.684L148.972 121.222L148.095 121.505L147.529 122.353L146.935 123.089L146.538 124.079L146.991 125.239L147.557 126.031L147.727 127.021L147.586 128.181L148.123 129.143L150.076 130.19L151.519 130.586L153.727 130.614L155.877 130.218L157.377 129.765L158.849 129.822L161.594 130.982L162.868 131.802L163.745 133.047L163.094 134.066L162.132 134.688L161.481 134.716L160.802 134.631L160.094 134.405L159.443 134.292L158.877 134.009L157.717 133.613L157.151 133.868L156.755 134.377L156.5 134.999L156.415 135.735L157.66 137.319L157.745 138.535L157.689 138.96L157.858 139.384L157.943 140.035L157.462 140.459L154.038 142.751L153.246 143.43L148.746 140.091V140.205L147.897 140.289L145.322 140.205L143.595 139.808L138.841 138.224L135.756 138.592L134.426 139.695L134.058 141.364L134.596 143.09L135.7 145.523L135.869 146.372L135.558 146.74L135.105 146.626L134.822 146.485L134.228 146.032L133.153 145.41L132.615 144.844L131.936 144.646L131.172 144.561L130.436 144.335L129.162 143.684L128.511 143.43L126.53 143.09L126.134 142.949L124.974 142.241L124.153 142.015L122.483 141.817L121.691 141.647L120.559 141.251L119.031 141.082L117.842 140.799L117.163 140.685L113.824 140.997L109.692 140.657L108.899 140.742L104.145 142.355L102.928 143.062L102.277 143.684L101.485 144.193L100.919 144.448L100.721 144.392L100.749 143.401L101.032 142.439L101.457 141.761L101.74 141.025L102.107 137.517L101.994 135.961L100.862 133.952L101.457 132.425L101.655 131.604L105.051 131.067L108.362 130.19L111.39 128.662L112.437 127.53L113.258 126.173L114.276 123.344L115.38 118.534L115.295 116.186L115.352 114.715L115.89 112.141L116.314 111.377L116.597 111.292L116.88 111.094L116.965 110.641L116.908 110.16L117.559 109.849L117.899 110.5L118.465 110.783L119.229 110.726L119.795 111.207L120.587 111.264L121.38 111.603L122.2 111.235L123.106 109.566L124.549 109.34L125.313 110.047L125.54 110.585L125.512 111.207L126.276 111.801L127.21 112.367L127.464 115.168L128.059 117.459L129.926 116.441L131.285 114.517L131.907 113.923L132.671 114.234L134.794 114.8L135.756 116.045L136.209 116.497L136.52 117.035L137.086 117.601L138.02 117.487L139.011 116.469L139.775 115.139L140.369 113.725L141.246 112.706Z" fill="#A163BE" stroke="white" stroke-width="0.8" stroke-linecap="round" stroke-linejoin="round"/>
<path d="M116.908 110.161L116.965 110.642L116.88 111.095L116.597 111.293L116.314 111.378L115.889 112.141L115.352 114.716L115.295 116.187L115.38 118.535L114.276 123.344L113.257 126.173L112.437 127.531L111.39 128.663L108.361 130.191L105.05 131.068L101.654 131.605L100.607 131.775L99.7299 131.662L98.2866 131.718L97.2112 131.605L96.6452 130.587L96.5037 130.162L96.2773 113.16L96.3905 112.481L96.9565 112.226L101.315 112.057L102.73 112.481L104.909 114.631L106.041 115.253L106.182 115.225L109.493 110.501L111.729 110.246L112.38 110.274L113.031 110.359L113.625 110.614L114.135 110.246L114.87 109.199L115.719 109.51L116.144 110.331L116.908 110.161Z" fill="#A163BE" stroke="white" stroke-width="0.8" stroke-linecap="round" stroke-linejoin="round"/>
</g>
<defs>
<clipPath id="clip0_2404_17246">
<rect width="283" height="230" fill="white"/>
</clipPath>
</defs>
</svg>
