<svg width="24" height="24" viewBox="0 0 24 24" fill="none" xmlns="http://www.w3.org/2000/svg">
<path d="M13.9445 9.91015C13.3689 10.2947 12.6922 10.5 12 10.5C11.0717 10.5 10.1815 10.1313 9.52513 9.47488C8.86875 8.8185 8.5 7.92826 8.5 7C8.5 6.30777 8.70527 5.63108 9.08986 5.05551C9.47444 4.47993 10.0211 4.03133 10.6606 3.76642C11.3001 3.50152 12.0039 3.43221 12.6828 3.56725C13.3617 3.7023 13.9854 4.03564 14.4749 4.52513C14.9644 5.01461 15.2977 5.63825 15.4327 6.31719C15.5678 6.99612 15.4985 7.69985 15.2336 8.33939C14.9687 8.97894 14.5201 9.52556 13.9445 9.91015ZM18.3536 20.3536C18.2598 20.4473 18.1326 20.5 18 20.5H6C5.86739 20.5 5.74021 20.4473 5.64645 20.3536C5.55268 20.2598 5.5 20.1326 5.5 20C5.5 18.2761 6.18482 16.6228 7.40381 15.4038C8.62279 14.1848 10.2761 13.5 12 13.5C13.7239 13.5 15.3772 14.1848 16.5962 15.4038C17.8152 16.6228 18.5 18.2761 18.5 20C18.5 20.1326 18.4473 20.2598 18.3536 20.3536Z" fill="#006A76"/>
<path d="M13.9445 9.91015C13.3689 10.2947 12.6922 10.5 12 10.5C11.0717 10.5 10.1815 10.1313 9.52513 9.47488C8.86875 8.8185 8.5 7.92826 8.5 7C8.5 6.30777 8.70527 5.63108 9.08986 5.05551C9.47444 4.47993 10.0211 4.03133 10.6606 3.76642C11.3001 3.50152 12.0039 3.43221 12.6828 3.56725C13.3617 3.7023 13.9854 4.03564 14.4749 4.52513C14.9644 5.01461 15.2977 5.63825 15.4327 6.31719C15.5678 6.99612 15.4985 7.69985 15.2336 8.33939C14.9687 8.97894 14.5201 9.52556 13.9445 9.91015ZM18.3536 20.3536C18.2598 20.4473 18.1326 20.5 18 20.5H6C5.86739 20.5 5.74021 20.4473 5.64645 20.3536C5.55268 20.2598 5.5 20.1326 5.5 20C5.5 18.2761 6.18482 16.6228 7.40381 15.4038C8.62279 14.1848 10.2761 13.5 12 13.5C13.7239 13.5 15.3772 14.1848 16.5962 15.4038C17.8152 16.6228 18.5 18.2761 18.5 20C18.5 20.1326 18.4473 20.2598 18.3536 20.3536Z" stroke="#191C1D"/>
<path d="M13.9445 9.91015C13.3689 10.2947 12.6922 10.5 12 10.5C11.0717 10.5 10.1815 10.1313 9.52513 9.47488C8.86875 8.8185 8.5 7.92826 8.5 7C8.5 6.30777 8.70527 5.63108 9.08986 5.05551C9.47444 4.47993 10.0211 4.03133 10.6606 3.76642C11.3001 3.50152 12.0039 3.43221 12.6828 3.56725C13.3617 3.7023 13.9854 4.03564 14.4749 4.52513C14.9644 5.01461 15.2977 5.63825 15.4327 6.31719C15.5678 6.99612 15.4985 7.69985 15.2336 8.33939C14.9687 8.97894 14.5201 9.52556 13.9445 9.91015ZM18.3536 20.3536C18.2598 20.4473 18.1326 20.5 18 20.5H6C5.86739 20.5 5.74021 20.4473 5.64645 20.3536C5.55268 20.2598 5.5 20.1326 5.5 20C5.5 18.2761 6.18482 16.6228 7.40381 15.4038C8.62279 14.1848 10.2761 13.5 12 13.5C13.7239 13.5 15.3772 14.1848 16.5962 15.4038C17.8152 16.6228 18.5 18.2761 18.5 20C18.5 20.1326 18.4473 20.2598 18.3536 20.3536Z" stroke="#4FD8EC" stroke-opacity="0.05"/>
</svg>
