<svg width="22" height="14" viewBox="0 0 22 14" fill="none" xmlns="http://www.w3.org/2000/svg">
<path d="M6 12.9999C6 12.4318 6 11.7584 6.002 11.358V11.3555V11.3555V11.3555V11.3555V11.3555V11.3554V11.3554V11.3554V11.3554V11.3554V11.3554V11.3554V11.3554V11.3553V11.3553V11.3553V11.3553V11.3553V11.3553V11.3553V11.3553V11.3553V11.3552V11.3552V11.3552V11.3552V11.3552V11.3552V11.3552V11.3552V11.3551V11.3551V11.3551V11.3551V11.3551V11.3551V11.3551V11.3551V11.3551V11.355V11.355V11.355V11.355V11.355V11.355V11.355V11.355V11.3549V11.3549V11.3549V11.3549V11.3549V11.3549V11.3549V11.3549V11.3549V11.3548V11.3548V11.3548V11.3548V11.3548V11.3548V11.3548V11.3548V11.3547V11.3547V11.3547V11.3547V11.3547V11.3547V11.3547V11.3547V11.3547V11.3546V11.3546V11.3546V11.3546V11.3546V11.3546V11.3546V11.3546V11.3546V11.3545V11.3545V11.3545V11.3545V11.3545V11.3545V11.3545V11.3545V11.3544V11.3544V11.3544V11.3544V11.3544V11.3544V11.3544V11.3544V11.3544V11.3543V11.3543V11.3543V11.3543V11.3543V11.3543V11.3543V11.3543V11.3542V11.3542V11.3542V11.3542V11.3542V11.3542V11.3542V11.3542V11.3542V11.3541V11.3541V11.3541V11.3541V11.3541V11.3541V11.3541V11.3541V11.354V11.354V11.354V11.354V11.354V11.354C6.60125 10.6737 8.34479 9 11 9C14.0285 9 15.5383 10.6665 16 11.2922V12.9999L15.9999 13H6.00011L6 12.9999ZM5.99994 13.0001C5.99997 13.0001 5.99999 13.0001 6 13.0002C6.0001 13.0004 6 13.0004 6 13C5.99962 13 5.99958 12.9999 5.99982 13C5.99986 13 5.9999 13 5.99994 13.0001ZM4 11C4.01116 11 4.02229 11 4.03338 11.0001L4.53718 11.0301C4.51395 11.1353 4.502 11.2434 4.502 11.3525L4.00201 11.35C4.002 11.3504 4.002 11.3508 4.002 11.3512C4 11.7528 4 12.4302 4 12.9976V13H1C1 12.7599 1.00001 12.526 1.0027 12.3477C1.0028 12.3458 1.00288 12.344 1.00295 12.3425C1.00331 12.3344 1.00342 12.3278 1.00346 12.3237L1.0035 12.3172C1.36195 11.882 2.30033 11 4 11ZM6.002 11.3531V11.3531V11.3531V11.3531V11.3531V11.3531V11.3531V11.3531V11.3531V11.353V11.353V11.353V11.353V11.353V11.353V11.353V11.353V11.3529V11.3529V11.3529V11.3529V11.3529V11.3529V11.3529V11.3529V11.3529V11.3528V11.3528V11.3528V11.3528V11.3528V11.3528V11.3528V11.3528V11.3527V11.3527V11.3527V11.3527V11.3527V11.3527V11.3527V11.3527V11.3527V11.3526V11.3526V11.3526V11.3526V11.3526V11.3526V11.3526L6.00216 11.3533L6.002 11.3532V11.3531ZM21 13H18V11.2925C18 11.1942 17.9928 11.0965 17.9786 11C17.9857 11 17.9928 11 18 11C19.6986 11 20.6381 11.8814 21 12.3156V13ZM2 7C2 5.89614 2.89614 5 4 5C5.10386 5 6 5.89614 6 7C6 8.10386 5.10386 9 4 9C2.89614 9 2 8.10386 2 7ZM16 7C16 5.89614 16.8961 5 18 5C19.1039 5 20 5.89614 20 7C20 8.10386 19.1039 9 18 9C16.8961 9 16 8.10386 16 7ZM8 4C8 2.34464 9.34464 1 11 1C12.6554 1 14 2.34464 14 4C14 5.65536 12.6554 7 11 7C9.34464 7 8 5.65536 8 4Z" fill="#006A76"/>
<path d="M6 12.9999C6 12.4318 6 11.7584 6.002 11.358V11.3555V11.3555V11.3555V11.3555V11.3555V11.3554V11.3554V11.3554V11.3554V11.3554V11.3554V11.3554V11.3554V11.3553V11.3553V11.3553V11.3553V11.3553V11.3553V11.3553V11.3553V11.3553V11.3552V11.3552V11.3552V11.3552V11.3552V11.3552V11.3552V11.3552V11.3551V11.3551V11.3551V11.3551V11.3551V11.3551V11.3551V11.3551V11.3551V11.355V11.355V11.355V11.355V11.355V11.355V11.355V11.355V11.3549V11.3549V11.3549V11.3549V11.3549V11.3549V11.3549V11.3549V11.3549V11.3548V11.3548V11.3548V11.3548V11.3548V11.3548V11.3548V11.3548V11.3547V11.3547V11.3547V11.3547V11.3547V11.3547V11.3547V11.3547V11.3547V11.3546V11.3546V11.3546V11.3546V11.3546V11.3546V11.3546V11.3546V11.3546V11.3545V11.3545V11.3545V11.3545V11.3545V11.3545V11.3545V11.3545V11.3544V11.3544V11.3544V11.3544V11.3544V11.3544V11.3544V11.3544V11.3544V11.3543V11.3543V11.3543V11.3543V11.3543V11.3543V11.3543V11.3543V11.3542V11.3542V11.3542V11.3542V11.3542V11.3542V11.3542V11.3542V11.3542V11.3541V11.3541V11.3541V11.3541V11.3541V11.3541V11.3541V11.3541V11.354V11.354V11.354V11.354V11.354V11.354C6.60125 10.6737 8.34479 9 11 9C14.0285 9 15.5383 10.6665 16 11.2922V12.9999L15.9999 13H6.00011L6 12.9999ZM5.99994 13.0001C5.99997 13.0001 5.99999 13.0001 6 13.0002C6.0001 13.0004 6 13.0004 6 13C5.99962 13 5.99958 12.9999 5.99982 13C5.99986 13 5.9999 13 5.99994 13.0001ZM4 11C4.01116 11 4.02229 11 4.03338 11.0001L4.53718 11.0301C4.51395 11.1353 4.502 11.2434 4.502 11.3525L4.00201 11.35C4.002 11.3504 4.002 11.3508 4.002 11.3512C4 11.7528 4 12.4302 4 12.9976V13H1C1 12.7599 1.00001 12.526 1.0027 12.3477C1.0028 12.3458 1.00288 12.344 1.00295 12.3425C1.00331 12.3344 1.00342 12.3278 1.00346 12.3237L1.0035 12.3172C1.36195 11.882 2.30033 11 4 11ZM6.002 11.3531V11.3531V11.3531V11.3531V11.3531V11.3531V11.3531V11.3531V11.3531V11.353V11.353V11.353V11.353V11.353V11.353V11.353V11.353V11.3529V11.3529V11.3529V11.3529V11.3529V11.3529V11.3529V11.3529V11.3529V11.3528V11.3528V11.3528V11.3528V11.3528V11.3528V11.3528V11.3528V11.3527V11.3527V11.3527V11.3527V11.3527V11.3527V11.3527V11.3527V11.3527V11.3526V11.3526V11.3526V11.3526V11.3526V11.3526V11.3526L6.00216 11.3533L6.002 11.3532V11.3531ZM21 13H18V11.2925C18 11.1942 17.9928 11.0965 17.9786 11C17.9857 11 17.9928 11 18 11C19.6986 11 20.6381 11.8814 21 12.3156V13ZM2 7C2 5.89614 2.89614 5 4 5C5.10386 5 6 5.89614 6 7C6 8.10386 5.10386 9 4 9C2.89614 9 2 8.10386 2 7ZM16 7C16 5.89614 16.8961 5 18 5C19.1039 5 20 5.89614 20 7C20 8.10386 19.1039 9 18 9C16.8961 9 16 8.10386 16 7ZM8 4C8 2.34464 9.34464 1 11 1C12.6554 1 14 2.34464 14 4C14 5.65536 12.6554 7 11 7C9.34464 7 8 5.65536 8 4Z" stroke="#191C1D"/>
<path d="M6 12.9999C6 12.4318 6 11.7584 6.002 11.358V11.3555V11.3555V11.3555V11.3555V11.3555V11.3554V11.3554V11.3554V11.3554V11.3554V11.3554V11.3554V11.3554V11.3553V11.3553V11.3553V11.3553V11.3553V11.3553V11.3553V11.3553V11.3553V11.3552V11.3552V11.3552V11.3552V11.3552V11.3552V11.3552V11.3552V11.3551V11.3551V11.3551V11.3551V11.3551V11.3551V11.3551V11.3551V11.3551V11.355V11.355V11.355V11.355V11.355V11.355V11.355V11.355V11.3549V11.3549V11.3549V11.3549V11.3549V11.3549V11.3549V11.3549V11.3549V11.3548V11.3548V11.3548V11.3548V11.3548V11.3548V11.3548V11.3548V11.3547V11.3547V11.3547V11.3547V11.3547V11.3547V11.3547V11.3547V11.3547V11.3546V11.3546V11.3546V11.3546V11.3546V11.3546V11.3546V11.3546V11.3546V11.3545V11.3545V11.3545V11.3545V11.3545V11.3545V11.3545V11.3545V11.3544V11.3544V11.3544V11.3544V11.3544V11.3544V11.3544V11.3544V11.3544V11.3543V11.3543V11.3543V11.3543V11.3543V11.3543V11.3543V11.3543V11.3542V11.3542V11.3542V11.3542V11.3542V11.3542V11.3542V11.3542V11.3542V11.3541V11.3541V11.3541V11.3541V11.3541V11.3541V11.3541V11.3541V11.354V11.354V11.354V11.354V11.354V11.354C6.60125 10.6737 8.34479 9 11 9C14.0285 9 15.5383 10.6665 16 11.2922V12.9999L15.9999 13H6.00011L6 12.9999ZM5.99994 13.0001C5.99997 13.0001 5.99999 13.0001 6 13.0002C6.0001 13.0004 6 13.0004 6 13C5.99962 13 5.99958 12.9999 5.99982 13C5.99986 13 5.9999 13 5.99994 13.0001ZM4 11C4.01116 11 4.02229 11 4.03338 11.0001L4.53718 11.0301C4.51395 11.1353 4.502 11.2434 4.502 11.3525L4.00201 11.35C4.002 11.3504 4.002 11.3508 4.002 11.3512C4 11.7528 4 12.4302 4 12.9976V13H1C1 12.7599 1.00001 12.526 1.0027 12.3477C1.0028 12.3458 1.00288 12.344 1.00295 12.3425C1.00331 12.3344 1.00342 12.3278 1.00346 12.3237L1.0035 12.3172C1.36195 11.882 2.30033 11 4 11ZM6.002 11.3531V11.3531V11.3531V11.3531V11.3531V11.3531V11.3531V11.3531V11.3531V11.353V11.353V11.353V11.353V11.353V11.353V11.353V11.353V11.3529V11.3529V11.3529V11.3529V11.3529V11.3529V11.3529V11.3529V11.3529V11.3528V11.3528V11.3528V11.3528V11.3528V11.3528V11.3528V11.3528V11.3527V11.3527V11.3527V11.3527V11.3527V11.3527V11.3527V11.3527V11.3527V11.3526V11.3526V11.3526V11.3526V11.3526V11.3526V11.3526L6.00216 11.3533L6.002 11.3532V11.3531ZM21 13H18V11.2925C18 11.1942 17.9928 11.0965 17.9786 11C17.9857 11 17.9928 11 18 11C19.6986 11 20.6381 11.8814 21 12.3156V13ZM2 7C2 5.89614 2.89614 5 4 5C5.10386 5 6 5.89614 6 7C6 8.10386 5.10386 9 4 9C2.89614 9 2 8.10386 2 7ZM16 7C16 5.89614 16.8961 5 18 5C19.1039 5 20 5.89614 20 7C20 8.10386 19.1039 9 18 9C16.8961 9 16 8.10386 16 7ZM8 4C8 2.34464 9.34464 1 11 1C12.6554 1 14 2.34464 14 4C14 5.65536 12.6554 7 11 7C9.34464 7 8 5.65536 8 4Z" stroke="#4FD8EC" stroke-opacity="0.05"/>
</svg>
